0
SECTION
2
HEADER
9
$INSUNITS
70
4
0
ENDSEC
0
SECTION
2
TABLES
0
TABLE
2
LTYPE
0
LTYPE
72
65
70
64
2
CONTINUOUS
3
______
73
0
40
0
0
ENDTAB
0
TABLE
2
LAYER
0
ENDTAB
0
ENDSEC
0
SECTION
2
ENTITIES
0
ARC
8
0
10
-8.0223674
20
5.1857132
40
4
50
159.9999997
51
190
0
LINE
8
0
10
-11.9615984
20
4.4911204
11
-10.6016761
21
-3.2213822
0
ARC
8
0
10
-10.9743864
20
21.927445
40
4
50
159.9999997
51
190
0
LINE
8
0
10
-14.9136174
20
21.2328522
11
-12.6561911
21
8.4303515
0
ARC
8
0
10
-8.7169601
20
9.1249442
40
4
50
190
51
219.9999993
0
LINE
8
0
10
-10.6016761
20
43.3171227
11
-14.6209981
21
42.6084078
0
ARC
8
0
10
-13.9264054
20
38.6691768
40
4
50
100
51
190
0
LINE
8
0
10
-17.8656364
20
37.974584
11
-15.6082101
21
25.1720833
0
ARC
8
0
10
-11.6689791
20
25.866676
40
4
50
190
51
219.9999993
0
ARC
8
0
10
59.3983239
20
64.6129635
40
4
50
10.8069243
51
90
0
LINE
8
0
10
59.3983239
20
68.6129635
11
45.3983239
21
68.6129635
0
ARC
8
0
10
45.3983239
20
64.6129635
40
4
50
90
51
169.1930757
0
LINE
8
0
10
95.3808906
20
-17.1370364
11
105.8643981
21
-23.1896923
0
ARC
8
0
10
107.8643981
20
-19.7255907
40
4
50
240
51
330
0
LINE
8
0
10
111.3284997
20
-21.7255907
11
113.9777028
21
-17.1370364
0
LINE
8
0
10
265.7061167
20
-3.2213822
11
267.066039
21
4.4911204
0
ARC
8
0
10
263.126808
20
5.1857132
40
4
50
350
51
380.0000003
0
ARC
8
0
10
263.8214007
20
9.1249442
40
4
50
320.0000007
51
350
0
LINE
8
0
10
267.7606317
20
8.4303515
11
270.018058
21
21.2328522
0
ARC
8
0
10
266.078827
20
21.927445
40
4
50
350
51
380.0000003
0
ARC
8
0
10
266.7734197
20
25.866676
40
4
50
320.0000007
51
350
0
LINE
8
0
10
270.7126507
20
25.1720833
11
272.970077
21
37.974584
0
ARC
8
0
10
269.030846
20
38.6691768
40
4
50
350
51
80
0
LINE
8
0
10
269.7254387
20
42.6084078
11
265.7061167
21
43.3171227
0
ARC
8
0
10
209.7061167
20
64.6129635
40
4
50
10.8069243
51
90
0
LINE
8
0
10
209.7061167
20
68.6129635
11
195.7061167
21
68.6129635
0
ARC
8
0
10
195.7061167
20
64.6129635
40
4
50
90
51
169.1930757
0
LINE
8
0
10
149.2400425
20
-23.1896923
11
159.72355
21
-17.1370364
0
LINE
8
0
10
141.1267378
20
-17.1370364
11
143.7759409
21
-21.7255907
0
ARC
8
0
10
147.2400425
20
-19.7255907
40
4
50
210
51
300
0
LINE
8
0
10
-9.6016761
20
-17.1370364
11
95.3808906
21
-17.1370364
0
LINE
8
0
10
113.9777028
20
-17.1370364
11
120.3983239
21
-17.1370364
0
ARC
8
0
10
120.3983239
20
-16.1370364
40
1
50
270
51
360
0
LINE
8
0
10
121.3983239
20
-16.1370364
11
121.3983239
21
64.3629636
0
ARC
8
0
10
120.3983239
20
64.3629636
40
1
50
0
51
90
0
LINE
8
0
10
120.3983239
20
65.3629636
11
63.3273823
21
65.3629636
0
LINE
8
0
10
41.4692655
20
65.3629636
11
-9.6016761
21
65.3629636
0
ARC
8
0
10
-9.6016761
20
64.3629636
40
1
50
90
51
180
0
LINE
8
0
10
-10.6016761
20
64.3629636
11
-10.6016761
21
43.3171227
0
LINE
8
0
10
-10.6016761
20
-3.2213822
11
-10.6016761
21
-16.1370364
0
ARC
8
0
10
-9.6016761
20
-16.1370364
40
1
50
180
51
270
0
LINE
8
0
10
134.7061167
20
-17.1370364
11
141.1267378
21
-17.1370364
0
LINE
8
0
10
159.72355
20
-17.1370364
11
264.7061167
21
-17.1370364
0
ARC
8
0
10
264.7061167
20
-16.1370364
40
1
50
270
51
360
0
LINE
8
0
10
265.7061167
20
-16.1370364
11
265.7061167
21
-3.2213822
0
LINE
8
0
10
265.7061167
20
43.3171227
11
265.7061167
21
64.3629636
0
ARC
8
0
10
264.7061167
20
64.3629636
40
1
50
0
51
90
0
LINE
8
0
10
264.7061167
20
65.3629636
11
213.6351751
21
65.3629636
0
LINE
8
0
10
191.7770583
20
65.3629636
11
134.7061167
21
65.3629636
0
ARC
8
0
10
134.7061167
20
64.3629636
40
1
50
90
51
180
0
LINE
8
0
10
133.7061167
20
64.3629636
11
133.7061167
21
-16.1370364
0
ARC
8
0
10
134.7061167
20
-16.1370364
40
1
50
180
51
270
0
ENDSEC
0
EOF