<svg width="276.308mm" height="82.5mm" viewBox="0 0 276.308 82.5" xmlns="http://www.w3.org/2000/svg"><g id="svgGroup" stroke-linecap="round" fill-rule="evenodd" font-size="9pt" stroke="#000" stroke-width="0.25mm" fill="none" style="stroke:#000;stroke-width:0.25mm;fill:none"><path d="M 1 82.5 L 131 82.5 A 1 1 0 0 0 132 81.5 L 132 1 A 1 1 0 0 0 131 0 L 1 0 A 1 1 0 0 0 0 1 L 0 81.5 A 1 1 0 0 0 1 82.5 Z M 145.308 82.5 L 275.308 82.5 A 1 1 0 0 0 276.308 81.5 L 276.308 1 A 1 1 0 0 0 275.308 0 L 145.308 0 A 1 1 0 0 0 144.308 1 L 144.308 81.5 A 1 1 0 0 0 145.308 82.5 Z" vector-effect="non-scaling-stroke"/></g></svg>