0
SECTION
2
HEADER
9
$INSUNITS
70
4
0
ENDSEC
0
SECTION
2
TABLES
0
TABLE
2
LTYPE
0
LTYPE
72
65
70
64
2
CONTINUOUS
3
______
73
0
40
0
0
ENDTAB
0
TABLE
2
LAYER
0
ENDTAB
0
ENDSEC
0
SECTION
2
ENTITIES
0
LINE
8
0
10
-5.4176448
20
-9.5864031
11
8.3696638
21
-7.1553287
0
ARC
8
0
10
8.0223674
20
-5.1857132
40
2
50
280
51
10
0
ARC
8
0
10
5.7649411
20
7.6167876
40
2
50
10
51
100
0
ARC
8
0
10
-8.0223674
20
5.1857132
40
2
50
100
51
190
0
LINE
8
0
10
-9.9919829
20
4.8384168
11
-7.7345566
21
-7.964084
0
ARC
8
0
10
-5.7649411
20
-7.6167876
40
2
50
190
51
280
0
ARC
8
0
10
5.0703484
20
11.5560186
40
2
50
280
51
10
0
ARC
8
0
10
2.8129221
20
24.3585194
40
2
50
10
51
100
0
ARC
8
0
10
-10.9743864
20
21.927445
40
2
50
100
51
190
0
LINE
8
0
10
-12.9440019
20
21.5801486
11
-10.6865756
21
8.7776478
0
ARC
8
0
10
-8.7169601
20
9.1249442
40
2
50
190
51
280
0
ARC
8
0
10
2.1183294
20
28.2977504
40
2
50
280
51
10
0
ARC
8
0
10
-0.1390969
20
41.1002512
40
2
50
10
51
100
0
LINE
8
0
10
-0.4863932
20
43.0698667
11
-14.2737018
21
40.6387923
0
ARC
8
0
10
-13.9264054
20
38.6691768
40
2
50
100
51
190
0
LINE
8
0
10
-15.8960209
20
38.3218804
11
-13.6385946
21
25.5193796
0
ARC
8
0
10
-11.6689791
20
25.866676
40
2
50
190
51
280
0
LINE
8
0
10
12.3088948
20
-6.4607359
11
26.0962034
21
-4.0296615
0
ARC
8
0
10
25.748907
20
-2.060046
40
2
50
280
51
10
0
LINE
8
0
10
27.7185225
20
-1.7127496
11
25.4610962
21
11.0897512
0
ARC
8
0
10
23.4914807
20
10.7424548
40
2
50
10
51
100
0
ARC
8
0
10
9.7041722
20
8.3113804
40
2
50
100
51
190
0
ARC
8
0
10
11.9615985
20
-4.4911204
40
2
50
190
51
280
0
ARC
8
0
10
22.7968879
20
14.6816858
40
2
50
280
51
10
0
LINE
8
0
10
24.7665034
20
15.0289822
11
22.5090771
21
27.831483
0
ARC
8
0
10
20.5394616
20
27.4841866
40
2
50
10
51
100
0
ARC
8
0
10
6.7521531
20
25.0531122
40
2
50
100
51
190
0
ARC
8
0
10
9.0095794
20
12.2506114
40
2
50
190
51
280
0
ARC
8
0
10
19.8448689
20
31.4234176
40
2
50
280
51
10
0
LINE
8
0
10
21.8144844
20
31.770714
11
19.5570581
21
44.5732148
0
ARC
8
0
10
17.5874426
20
44.2259184
40
2
50
10
51
100
0
LINE
8
0
10
17.2401463
20
46.1955339
11
3.4528377
21
43.7644595
0
ARC
8
0
10
3.8001341
20
41.794844
40
2
50
100
51
190
0
ARC
8
0
10
6.0575604
20
28.9923432
40
2
50
190
51
280
0
LINE
8
0
10
27.8035207
20
9.2596486
11
41.7694174
21
10.2362392
0
ARC
8
0
10
41.6299044
20
12.2313673
40
2
50
274
51
4
0
LINE
8
0
10
43.6250325
20
12.3708802
11
42.7181984
21
25.3392129
0
ARC
8
0
10
40.7230703
20
25.1996999
40
2
50
4
51
94
0
ARC
8
0
10
26.7571736
20
24.2231093
40
2
50
94
51
184
0
LINE
8
0
10
24.7620455
20
24.0835964
11
25.6688796
21
11.1152637
0
ARC
8
0
10
27.6640077
20
11.2547767
40
2
50
184
51
274
0
ARC
8
0
10
40.4440443
20
29.1899562
40
2
50
274
51
4
0
LINE
8
0
10
42.4391724
20
29.3294691
11
41.5323383
21
42.2978018
0
ARC
8
0
10
39.5372102
20
42.1582888
40
2
50
4
51
94
0
ARC
8
0
10
25.5713135
20
41.1816982
40
2
50
94
51
184
0
LINE
8
0
10
23.5761854
20
41.0421853
11
24.4830195
21
28.0738526
0
ARC
8
0
10
26.4781476
20
28.2133656
40
2
50
184
51
274
0
ARC
8
0
10
39.2581843
20
46.148545
40
2
50
274
51
4
0
LINE
8
0
10
41.2533124
20
46.2880579
11
40.3464783
21
59.2563906
0
ARC
8
0
10
38.3513502
20
59.1168776
40
2
50
4
51
94
0
LINE
8
0
10
38.2118372
20
61.1120057
11
24.2459405
21
60.1354151
0
ARC
8
0
10
24.3854535
20
58.140287
40
2
50
94
51
184
0
LINE
8
0
10
22.3903254
20
58.0007741
11
23.2971595
21
45.0324414
0
ARC
8
0
10
25.2922876
20
45.1719544
40
2
50
184
51
274
0
LINE
8
0
10
45.3983239
20
15.6129636
11
59.3983239
21
15.6129636
0
ARC
8
0
10
59.3983239
20
17.6129636
40
2
50
270
51
360
0
LINE
8
0
10
61.3983239
20
26.3629635
11
61.3983239
21
30.3629635
0
ARC
8
0
10
59.3983239
20
30.6129636
40
2
50
0
51
90
0
ARC
8
0
10
45.3983239
20
30.6129636
40
2
50
90
51
180
0
LINE
8
0
10
43.3983239
20
30.6129636
11
43.3983239
21
17.6129636
0
ARC
8
0
10
45.3983239
20
17.6129636
40
2
50
180
51
270
0
ARC
8
0
10
59.3983239
20
34.6129636
40
2
50
270
51
360
0
LINE
8
0
10
61.3983239
20
43.3629635
11
61.3983239
21
47.3629635
0
ARC
8
0
10
59.3983239
20
47.6129636
40
2
50
0
51
89.9871887
0
ARC
8
0
10
45.3983239
20
47.6129636
40
2
50
90.0128113
51
180
0
LINE
8
0
10
43.3983239
20
47.6129636
11
43.3983239
21
34.6129636
0
ARC
8
0
10
45.3983239
20
34.6129636
40
2
50
180
51
270
0
ARC
8
0
10
59.3983239
20
51.6129635
40
2
50
270.0128113
51
360
0
LINE
8
0
10
61.3983239
20
60.3629635
11
61.3983239
21
64.6129635
0
ARC
8
0
10
59.3983239
20
64.6129635
40
2
50
0
51
90
0
LINE
8
0
10
59.3983239
20
66.6129635
11
45.3983239
21
66.6129635
0
ARC
8
0
10
45.3983239
20
64.6129635
40
2
50
90
51
180
0
LINE
8
0
10
43.3983239
20
64.6129635
11
43.3983239
21
51.6129635
0
ARC
8
0
10
45.3983239
20
51.6129635
40
2
50
180
51
269.9871887
0
LINE
8
0
10
63.3983239
20
11.3629635
11
77.3983239
21
11.3629635
0
ARC
8
0
10
77.3983239
20
13.3629635
40
2
50
270
51
360
0
LINE
8
0
10
79.3983239
20
13.3629635
11
79.3983239
21
26.3629635
0
ARC
8
0
10
77.3983239
20
26.3629635
40
2
50
0
51
90
0
ARC
8
0
10
63.3983239
20
26.3629635
40
2
50
90
51
180
0
LINE
8
0
10
61.3983239
20
17.6129636
11
61.3983239
21
13.3629635
0
ARC
8
0
10
63.3983239
20
13.3629635
40
2
50
180
51
270
0
ARC
8
0
10
77.3983239
20
30.3629635
40
2
50
270
51
360
0
LINE
8
0
10
79.3983239
20
30.3629635
11
79.3983239
21
43.3629635
0
ARC
8
0
10
77.3983239
20
43.3629635
40
2
50
0
51
90
0
ARC
8
0
10
63.3983239
20
43.3629635
40
2
50
90
51
180
0
LINE
8
0
10
61.3983239
20
34.6129636
11
61.3983239
21
30.6129636
0
ARC
8
0
10
63.3983239
20
30.3629635
40
2
50
180
51
270
0
ARC
8
0
10
77.3983239
20
47.3629635
40
2
50
270
51
360
0
LINE
8
0
10
79.3983239
20
47.3629635
11
79.3983239
21
60.3629635
0
ARC
8
0
10
77.3983239
20
60.3629635
40
2
50
0
51
90
0
LINE
8
0
10
77.3983239
20
62.3629635
11
63.3983239
21
62.3629635
0
ARC
8
0
10
63.3983239
20
60.3629635
40
2
50
90
51
180
0
LINE
8
0
10
61.3983239
20
51.6129635
11
61.3983239
21
47.6129636
0
ARC
8
0
10
63.3983239
20
47.3629635
40
2
50
180
51
270
0
LINE
8
0
10
81.398324
20
8.6429635
11
95.398324
21
8.6429635
0
ARC
8
0
10
95.398324
20
10.6429635
40
2
50
270
51
360
0
LINE
8
0
10
97.398324
20
10.6429635
11
97.398324
21
23.6429635
0
ARC
8
0
10
95.398324
20
23.6429635
40
2
50
0
51
90
0
ARC
8
0
10
81.398324
20
23.6429635
40
2
50
90
51
180
0
LINE
8
0
10
79.398324
20
23.6429635
11
79.398324
21
10.6429635
0
ARC
8
0
10
81.398324
20
10.6429635
40
2
50
180
51
270
0
ARC
8
0
10
95.398324
20
27.6429635
40
2
50
270
51
360
0
LINE
8
0
10
97.398324
20
27.6429635
11
97.398324
21
40.6429635
0
ARC
8
0
10
95.398324
20
40.6429635
40
2
50
0
51
90
0
ARC
8
0
10
81.398324
20
40.6429635
40
2
50
90
51
180
0
LINE
8
0
10
79.398324
20
40.6429635
11
79.398324
21
27.6429635
0
ARC
8
0
10
81.398324
20
27.6429635
40
2
50
180
51
270
0
ARC
8
0
10
95.398324
20
44.6429635
40
2
50
270
51
360
0
LINE
8
0
10
97.398324
20
44.6429635
11
97.398324
21
57.6429635
0
ARC
8
0
10
95.398324
20
57.6429635
40
2
50
0
51
90
0
LINE
8
0
10
95.398324
20
59.6429635
11
81.398324
21
59.6429635
0
ARC
8
0
10
81.398324
20
57.6429635
40
2
50
90
51
180
0
LINE
8
0
10
79.398324
20
57.6429635
11
79.398324
21
44.6429635
0
ARC
8
0
10
81.398324
20
44.6429635
40
2
50
180
51
270
0
LINE
8
0
10
59.5083057
20
-10.5246262
11
73.4742024
21
-9.5480356
0
ARC
8
0
10
73.3346894
20
-7.5529075
40
2
50
274
51
4
0
LINE
8
0
10
75.3298175
20
-7.4133946
11
74.4229834
21
5.5549381
0
ARC
8
0
10
72.4278553
20
5.4154251
40
2
50
4
51
94
0
LINE
8
0
10
72.2883423
20
7.4105532
11
58.3224456
21
6.4339626
0
ARC
8
0
10
58.4619586
20
4.4388345
40
2
50
94
51
184
0
LINE
8
0
10
56.4668305
20
4.2993216
11
57.3736646
21
-8.6690111
0
ARC
8
0
10
59.3687927
20
-8.5294981
40
2
50
184
51
274
0
LINE
8
0
10
77.4180706
20
-9.8584248
11
91.0592515
21
-13.0077395
0
ARC
8
0
10
91.5091536
20
-11.0589994
40
2
50
257
51
347
0
LINE
8
0
10
93.4578937
20
-11.5089015
11
96.3822574
21
1.1579093
0
ARC
8
0
10
94.4335173
20
1.6078114
40
2
50
347
51
77
0
LINE
8
0
10
94.8834194
20
3.5565516
11
81.2422385
21
6.7058663
0
ARC
8
0
10
80.7923364
20
4.7571262
40
2
50
77
51
167
0
LINE
8
0
10
78.8435963
20
5.2070283
11
75.9192326
21
-7.4597825
0
ARC
8
0
10
77.8679727
20
-7.9096846
40
2
50
167
51
257
0
LINE
8
0
10
94.7400425
20
-14.4576415
11
106.8643981
21
-21.4576415
0
ARC
8
0
10
107.8643981
20
-19.7255907
40
2
50
240
51
330
0
LINE
8
0
10
109.5964489
20
-20.7255907
11
116.0964489
21
-9.4672605
0
ARC
8
0
10
114.3643981
20
-8.4672605
40
2
50
330
51
60
0
LINE
8
0
10
115.3643981
20
-6.7352097
11
103.2400425
21
0.2647903
0
ARC
8
0
10
102.2400425
20
-1.4672605
40
2
50
60
51
150
0
LINE
8
0
10
100.5079917
20
-0.4672605
11
94.0079917
21
-11.7255907
0
ARC
8
0
10
95.7400425
20
-12.7255907
40
2
50
150
51
240
0
LINE
8
0
10
246.7347768
20
-7.1553287
11
260.5220854
21
-9.5864031
0
ARC
8
0
10
260.8693817
20
-7.6167876
40
2
50
260
51
350
0
LINE
8
0
10
262.8389972
20
-7.964084
11
265.0964235
21
4.8384168
0
ARC
8
0
10
263.126808
20
5.1857132
40
2
50
350
51
80
0
ARC
8
0
10
249.3394995
20
7.6167876
40
2
50
80
51
170
0
ARC
8
0
10
247.0820732
20
-5.1857132
40
2
50
170
51
260
0
ARC
8
0
10
263.8214007
20
9.1249442
40
2
50
260
51
350
0
LINE
8
0
10
265.7910162
20
8.7776478
11
268.0484425
21
21.5801486
0
ARC
8
0
10
266.078827
20
21.927445
40
2
50
350
51
80
0
ARC
8
0
10
252.2915185
20
24.3585194
40
2
50
80
51
170
0
ARC
8
0
10
250.0340922
20
11.5560186
40
2
50
170
51
260
0
ARC
8
0
10
266.7734197
20
25.866676
40
2
50
260
51
350
0
LINE
8
0
10
268.7430352
20
25.5193796
11
271.0004615
21
38.3218804
0
ARC
8
0
10
269.030846
20
38.6691768
40
2
50
350
51
80
0
LINE
8
0
10
269.3781424
20
40.6387923
11
255.5908338
21
43.0698667
0
ARC
8
0
10
255.2435375
20
41.1002512
40
2
50
80
51
170
0
ARC
8
0
10
252.9861112
20
28.2977504
40
2
50
170
51
260
0
LINE
8
0
10
229.0082372
20
-4.0296615
11
242.7955458
21
-6.4607359
0
ARC
8
0
10
243.1428421
20
-4.4911204
40
2
50
260
51
350
0
ARC
8
0
10
245.4002684
20
8.3113804
40
2
50
350
51
80
0
ARC
8
0
10
231.6129599
20
10.7424548
40
2
50
80
51
170
0
LINE
8
0
10
229.6433444
20
11.0897512
11
227.3859181
21
-1.7127496
0
ARC
8
0
10
229.3555336
20
-2.060046
40
2
50
170
51
260
0
ARC
8
0
10
246.0948612
20
12.2506114
40
2
50
260
51
350
0
ARC
8
0
10
248.3522875
20
25.0531122
40
2
50
350
51
80
0
ARC
8
0
10
234.564979
20
27.4841866
40
2
50
80
51
170
0
LINE
8
0
10
232.5953635
20
27.831483
11
230.3379372
21
15.0289822
0
ARC
8
0
10
232.3075527
20
14.6816858
40
2
50
170
51
260
0
ARC
8
0
10
249.0468802
20
28.9923432
40
2
50
260
51
350
0
ARC
8
0
10
251.3043065
20
41.794844
40
2
50
350
51
80
0
LINE
8
0
10
251.6516029
20
43.7644595
11
237.8642943
21
46.1955339
0
ARC
8
0
10
237.516998
20
44.2259184
40
2
50
80
51
170
0
LINE
8
0
10
235.5473825
20
44.5732148
11
233.2899562
21
31.770714
0
ARC
8
0
10
235.2595717
20
31.4234176
40
2
50
170
51
260
0
LINE
8
0
10
213.3350232
20
10.2362392
11
227.3009199
21
9.2596486
0
ARC
8
0
10
227.4404329
20
11.2547767
40
2
50
266
51
356
0
LINE
8
0
10
229.435561
20
11.1152637
11
230.3423951
21
24.0835964
0
ARC
8
0
10
228.347267
20
24.2231093
40
2
50
356
51
86
0
ARC
8
0
10
214.3813703
20
25.1996999
40
2
50
86
51
176
0
LINE
8
0
10
212.3862422
20
25.3392129
11
211.4794081
21
12.3708802
0
ARC
8
0
10
213.4745362
20
12.2313673
40
2
50
176
51
266
0
ARC
8
0
10
228.626293
20
28.2133656
40
2
50
266
51
356
0
LINE
8
0
10
230.6214211
20
28.0738526
11
231.5282552
21
41.0421853
0
ARC
8
0
10
229.5331271
20
41.1816982
40
2
50
356
51
86
0
ARC
8
0
10
215.5672304
20
42.1582888
40
2
50
86
51
176
0
LINE
8
0
10
213.5721023
20
42.2978018
11
212.6652682
21
29.3294691
0
ARC
8
0
10
214.6603963
20
29.1899562
40
2
50
176
51
266
0
ARC
8
0
10
229.812153
20
45.1719544
40
2
50
266
51
356
0
LINE
8
0
10
231.8072811
20
45.0324414
11
232.7141152
21
58.0007741
0
ARC
8
0
10
230.7189871
20
58.140287
40
2
50
356
51
86
0
LINE
8
0
10
230.8585001
20
60.1354151
11
216.8926034
21
61.1120057
0
ARC
8
0
10
216.7530904
20
59.1168776
40
2
50
86
51
176
0
LINE
8
0
10
214.7579623
20
59.2563906
11
213.8511282
21
46.2880579
0
ARC
8
0
10
215.8462563
20
46.148545
40
2
50
176
51
266
0
LINE
8
0
10
195.7061167
20
15.6129636
11
209.7061167
21
15.6129636
0
ARC
8
0
10
209.7061167
20
17.6129636
40
2
50
270
51
360
0
LINE
8
0
10
211.7061167
20
17.6129636
11
211.7061167
21
30.6129636
0
ARC
8
0
10
209.7061167
20
30.6129636
40
2
50
0
51
90
0
ARC
8
0
10
195.7061167
20
30.6129636
40
2
50
90
51
180
0
LINE
8
0
10
193.7061167
20
30.3629635
11
193.7061167
21
26.3629635
0
ARC
8
0
10
195.7061167
20
17.6129636
40
2
50
180
51
270
0
ARC
8
0
10
209.7061167
20
34.6129636
40
2
50
270
51
360
0
LINE
8
0
10
211.7061167
20
34.6129636
11
211.7061167
21
47.6129636
0
ARC
8
0
10
209.7061167
20
47.6129636
40
2
50
0
51
89.9871887
0
ARC
8
0
10
195.7061167
20
47.6129636
40
2
50
90.0128113
51
180
0
LINE
8
0
10
193.7061167
20
47.3629635
11
193.7061167
21
43.3629635
0
ARC
8
0
10
195.7061167
20
34.6129636
40
2
50
180
51
270
0
ARC
8
0
10
209.7061167
20
51.6129635
40
2
50
270.0128113
51
360
0
LINE
8
0
10
211.7061167
20
51.6129635
11
211.7061167
21
64.6129635
0
ARC
8
0
10
209.7061167
20
64.6129635
40
2
50
0
51
90
0
LINE
8
0
10
209.7061167
20
66.6129635
11
195.7061167
21
66.6129635
0
ARC
8
0
10
195.7061167
20
64.6129635
40
2
50
90
51
180
0
LINE
8
0
10
193.7061167
20
64.6129635
11
193.7061167
21
60.3629635
0
ARC
8
0
10
195.7061167
20
51.6129635
40
2
50
180
51
269.9871887
0
LINE
8
0
10
177.7061167
20
11.3629635
11
191.7061167
21
11.3629635
0
ARC
8
0
10
191.7061167
20
13.3629635
40
2
50
270
51
360
0
LINE
8
0
10
193.7061167
20
13.3629635
11
193.7061167
21
17.6129636
0
ARC
8
0
10
191.7061167
20
26.3629635
40
2
50
0
51
90
0
ARC
8
0
10
177.7061167
20
26.3629635
40
2
50
90
51
180
0
LINE
8
0
10
175.7061167
20
26.3629635
11
175.7061167
21
13.3629635
0
ARC
8
0
10
177.7061167
20
13.3629635
40
2
50
180
51
270
0
ARC
8
0
10
191.7061167
20
30.3629635
40
2
50
270
51
360
0
LINE
8
0
10
193.7061167
20
30.6129636
11
193.7061167
21
34.6129636
0
ARC
8
0
10
191.7061167
20
43.3629635
40
2
50
0
51
90
0
ARC
8
0
10
177.7061167
20
43.3629635
40
2
50
90
51
180
0
LINE
8
0
10
175.7061167
20
43.3629635
11
175.7061167
21
30.3629635
0
ARC
8
0
10
177.7061167
20
30.3629635
40
2
50
180
51
270
0
ARC
8
0
10
191.7061167
20
47.3629635
40
2
50
270
51
360
0
LINE
8
0
10
193.7061167
20
47.6129636
11
193.7061167
21
51.6129635
0
ARC
8
0
10
191.7061167
20
60.3629635
40
2
50
0
51
90
0
LINE
8
0
10
191.7061167
20
62.3629635
11
177.7061167
21
62.3629635
0
ARC
8
0
10
177.7061167
20
60.3629635
40
2
50
90
51
180
0
LINE
8
0
10
175.7061167
20
60.3629635
11
175.7061167
21
47.3629635
0
ARC
8
0
10
177.7061167
20
47.3629635
40
2
50
180
51
270
0
LINE
8
0
10
159.7061166
20
8.6429635
11
173.7061166
21
8.6429635
0
ARC
8
0
10
173.7061166
20
10.6429635
40
2
50
270
51
360
0
LINE
8
0
10
175.7061166
20
10.6429635
11
175.7061166
21
23.6429635
0
ARC
8
0
10
173.7061166
20
23.6429635
40
2
50
0
51
90
0
ARC
8
0
10
159.7061166
20
23.6429635
40
2
50
90
51
180
0
LINE
8
0
10
157.7061166
20
23.6429635
11
157.7061166
21
10.6429635
0
ARC
8
0
10
159.7061166
20
10.6429635
40
2
50
180
51
270
0
ARC
8
0
10
173.7061166
20
27.6429635
40
2
50
270
51
360
0
LINE
8
0
10
175.7061166
20
27.6429635
11
175.7061166
21
40.6429635
0
ARC
8
0
10
173.7061166
20
40.6429635
40
2
50
0
51
90
0
ARC
8
0
10
159.7061166
20
40.6429635
40
2
50
90
51
180
0
LINE
8
0
10
157.7061166
20
40.6429635
11
157.7061166
21
27.6429635
0
ARC
8
0
10
159.7061166
20
27.6429635
40
2
50
180
51
270
0
ARC
8
0
10
173.7061166
20
44.6429635
40
2
50
270
51
360
0
LINE
8
0
10
175.7061166
20
44.6429635
11
175.7061166
21
57.6429635
0
ARC
8
0
10
173.7061166
20
57.6429635
40
2
50
0
51
90
0
LINE
8
0
10
173.7061166
20
59.6429635
11
159.7061166
21
59.6429635
0
ARC
8
0
10
159.7061166
20
57.6429635
40
2
50
90
51
180
0
LINE
8
0
10
157.7061166
20
57.6429635
11
157.7061166
21
44.6429635
0
ARC
8
0
10
159.7061166
20
44.6429635
40
2
50
180
51
270
0
LINE
8
0
10
181.6302382
20
-9.5480356
11
195.5961349
21
-10.5246262
0
ARC
8
0
10
195.7356479
20
-8.5294981
40
2
50
266
51
356
0
LINE
8
0
10
197.730776
20
-8.6690111
11
198.6376101
21
4.2993216
0
ARC
8
0
10
196.642482
20
4.4388345
40
2
50
356
51
86
0
LINE
8
0
10
196.781995
20
6.4339626
11
182.8160983
21
7.4105532
0
ARC
8
0
10
182.6765853
20
5.4154251
40
2
50
86
51
176
0
LINE
8
0
10
180.6814572
20
5.5549381
11
179.7746231
21
-7.4133946
0
ARC
8
0
10
181.7697512
20
-7.5529075
40
2
50
176
51
266
0
LINE
8
0
10
164.0451891
20
-13.0077395
11
177.68637
21
-9.8584248
0
ARC
8
0
10
177.2364679
20
-7.9096846
40
2
50
283
51
13
0
LINE
8
0
10
179.185208
20
-7.4597825
11
176.2608443
21
5.2070283
0
ARC
8
0
10
174.3121042
20
4.7571262
40
2
50
13
51
103
0
LINE
8
0
10
173.8622021
20
6.7058663
11
160.2210212
21
3.5565516
0
ARC
8
0
10
160.6709233
20
1.6078114
40
2
50
103
51
193
0
LINE
8
0
10
158.7221832
20
1.1579093
11
161.6465469
21
-11.5089015
0
ARC
8
0
10
163.595287
20
-11.0589994
40
2
50
193
51
283
0
LINE
8
0
10
148.2400425
20
-21.4576415
11
160.3643981
21
-14.4576415
0
ARC
8
0
10
159.3643981
20
-12.7255907
40
2
50
300
51
30
0
LINE
8
0
10
161.0964489
20
-11.7255907
11
154.5964489
21
-0.4672605
0
ARC
8
0
10
152.8643981
20
-1.4672605
40
2
50
30
51
120
0
LINE
8
0
10
151.8643981
20
0.2647903
11
139.7400425
21
-6.7352097
0
ARC
8
0
10
140.7400425
20
-8.4672605
40
2
50
120
51
210
0
LINE
8
0
10
139.0079917
20
-9.4672605
11
145.5079917
21
-20.7255907
0
ARC
8
0
10
147.2400425
20
-19.7255907
40
2
50
210
51
300
0
ENDSEC
0
EOF