<svg width="286.957mm" height="88.339mm" viewBox="0 0 286.957 88.339" xmlns="http://www.w3.org/2000/svg"><g id="svgGroup" stroke-linecap="round" fill-rule="evenodd" font-size="9pt" stroke="#000" stroke-width="0.25mm" fill="none" style="stroke:#000;stroke-width:0.25mm;fill:none"><path d="M 61.325 51 L 75.325 51 A 2 2 0 0 0 77.325 49 L 77.325 53.25 A 2 2 0 0 0 79.325 55.25 L 93.325 55.25 A 2 2 0 0 0 95.325 53.25 L 95.325 40.25 A 2 2 0 0 0 93.325 38.25 A 2 2 0 0 0 95.325 36.25 L 95.325 23.25 A 2 2 0 0 0 93.325 21.25 A 2 2 0 0 0 95.325 19.25 L 95.325 6.25 A 2 2 0 0 0 93.325 4.25 L 79.325 4.25 A 2 2 0 0 0 77.325 6.25 L 77.325 2 A 2 2 0 0 0 75.325 0 L 61.325 0 A 2 2 0 0 0 59.325 2 L 59.325 15 A 2 2 0 0 0 61.324 17 A 2 2 0 0 0 59.325 19 L 59.325 32 A 2 2 0 0 0 61.325 34 A 2 2 0 0 0 59.325 36 L 59.325 49 A 2 2 0 0 0 61.325 51 Z M 211.633 51 L 225.633 51 A 2 2 0 0 0 227.633 49 L 227.633 36 A 2 2 0 0 0 225.633 34 A 2 2 0 0 0 227.633 32 L 227.633 19 A 2 2 0 0 0 225.633 17 A 2 2 0 0 0 227.633 15 L 227.633 2 A 2 2 0 0 0 225.633 0 L 211.633 0 A 2 2 0 0 0 209.633 2 L 209.633 6.25 A 2 2 0 0 0 207.633 4.25 L 193.633 4.25 A 2 2 0 0 0 191.633 6.25 L 191.633 19.25 A 2 2 0 0 0 193.633 21.25 A 2 2 0 0 0 191.633 23.25 L 191.633 36.25 A 2 2 0 0 0 193.633 38.25 A 2 2 0 0 0 191.633 40.25 L 191.633 53.25 A 2 2 0 0 0 193.633 55.25 L 207.633 55.25 A 2 2 0 0 0 209.633 53.25 L 209.633 49 A 2 2 0 0 0 211.633 51 Z M 262.661 73.768 L 276.448 76.199 A 2 2 0 0 0 278.765 74.577 L 281.023 61.775 A 2 2 0 0 0 279.401 59.458 A 2 2 0 0 0 281.717 57.835 L 283.975 45.033 A 2 2 0 0 0 282.353 42.716 A 2 2 0 0 0 284.669 41.094 L 286.927 28.291 A 2 2 0 0 0 285.305 25.974 L 271.517 23.543 A 2 2 0 0 0 269.2 25.165 A 2 2 0 0 0 267.578 22.849 L 253.791 20.417 A 2 2 0 0 0 251.474 22.04 L 249.216 34.842 A 2 2 0 0 0 250.839 37.159 A 2 2 0 0 0 248.522 38.781 L 246.264 51.584 A 2 2 0 0 0 247.887 53.901 A 2 2 0 0 0 245.57 55.523 L 243.312 68.326 A 2 2 0 0 0 244.935 70.643 L 258.722 73.074 A 2 2 0 0 0 261.039 71.451 A 2 2 0 0 0 262.661 73.768 Z M 10.509 76.199 L 24.296 73.768 A 2 2 0 0 0 25.918 71.451 A 2 2 0 0 0 28.235 73.074 L 42.023 70.643 A 2 2 0 0 0 43.645 68.326 L 41.388 55.523 A 2 2 0 0 0 39.071 53.901 A 2 2 0 0 0 40.693 51.584 L 38.435 38.781 A 2 2 0 0 0 36.119 37.159 A 2 2 0 0 0 37.741 34.842 L 35.483 22.04 A 2 2 0 0 0 33.167 20.417 L 19.379 22.849 A 2 2 0 0 0 17.757 25.165 A 2 2 0 0 0 15.44 23.543 L 1.653 25.974 A 2 2 0 0 0 0.03 28.291 L 2.288 41.094 A 2 2 0 0 0 4.605 42.716 A 2 2 0 0 0 2.982 45.033 L 5.24 57.835 A 2 2 0 0 0 7.557 59.458 A 2 2 0 0 0 5.934 61.775 L 8.192 74.577 A 2 2 0 0 0 10.509 76.199 Z M 43.73 57.353 L 57.696 56.377 A 2 2 0 0 0 59.551 54.242 L 58.645 41.274 A 2 2 0 0 0 56.51 39.418 A 2 2 0 0 0 58.366 37.283 L 57.459 24.315 A 2 2 0 0 0 55.324 22.46 A 2 2 0 0 0 57.18 20.325 L 56.273 7.357 A 2 2 0 0 0 54.138 5.501 L 40.172 6.478 A 2 2 0 0 0 38.317 8.612 L 39.224 21.581 A 2 2 0 0 0 41.358 23.436 A 2 2 0 0 0 39.503 25.571 L 40.409 38.539 A 2 2 0 0 0 42.544 40.395 A 2 2 0 0 0 40.688 42.529 L 41.595 55.498 A 2 2 0 0 0 43.73 57.353 Z M 229.261 56.377 L 243.227 57.353 A 2 2 0 0 0 245.362 55.498 L 246.269 42.529 A 2 2 0 0 0 244.413 40.395 A 2 2 0 0 0 246.548 38.539 L 247.455 25.571 A 2 2 0 0 0 245.599 23.436 A 2 2 0 0 0 247.734 21.581 L 248.641 8.612 A 2 2 0 0 0 246.785 6.478 L 232.819 5.501 A 2 2 0 0 0 230.684 7.357 L 229.778 20.325 A 2 2 0 0 0 231.633 22.46 A 2 2 0 0 0 229.499 24.315 L 228.592 37.283 A 2 2 0 0 0 230.447 39.418 A 2 2 0 0 0 228.313 41.274 L 227.406 54.242 A 2 2 0 0 0 229.261 56.377 Z M 97.325 57.97 L 111.325 57.97 A 2 2 0 0 0 113.325 55.97 L 113.325 42.97 A 2 2 0 0 0 111.325 40.97 A 2 2 0 0 0 113.325 38.97 L 113.325 25.97 A 2 2 0 0 0 111.325 23.97 A 2 2 0 0 0 113.325 21.97 L 113.325 8.97 A 2 2 0 0 0 111.325 6.97 L 97.325 6.97 A 2 2 0 0 0 95.325 8.97 L 95.325 21.97 A 2 2 0 0 0 97.325 23.97 A 2 2 0 0 0 95.325 25.97 L 95.325 38.97 A 2 2 0 0 0 97.325 40.97 A 2 2 0 0 0 95.325 42.97 L 95.325 55.97 A 2 2 0 0 0 97.325 57.97 Z M 175.633 57.97 L 189.633 57.97 A 2 2 0 0 0 191.633 55.97 L 191.633 42.97 A 2 2 0 0 0 189.633 40.97 A 2 2 0 0 0 191.633 38.97 L 191.633 25.97 A 2 2 0 0 0 189.633 23.97 A 2 2 0 0 0 191.633 21.97 L 191.633 8.97 A 2 2 0 0 0 189.633 6.97 L 175.633 6.97 A 2 2 0 0 0 173.633 8.97 L 173.633 21.97 A 2 2 0 0 0 175.633 23.97 A 2 2 0 0 0 173.633 25.97 L 173.633 38.97 A 2 2 0 0 0 175.633 40.97 A 2 2 0 0 0 173.633 42.97 L 173.633 55.97 A 2 2 0 0 0 175.633 57.97 Z M 75.435 77.138 L 89.401 76.161 A 2 2 0 0 0 91.256 74.026 L 90.349 61.058 A 2 2 0 0 0 88.215 59.202 L 74.249 60.179 A 2 2 0 0 0 72.393 62.314 L 73.3 75.282 A 2 2 0 0 0 75.435 77.138 Z M 197.557 76.161 L 211.523 77.138 A 2 2 0 0 0 213.657 75.282 L 214.564 62.314 A 2 2 0 0 0 212.708 60.179 L 198.743 59.202 A 2 2 0 0 0 196.608 61.058 L 195.701 74.026 A 2 2 0 0 0 197.557 76.161 Z M 93.344 76.471 L 106.986 79.621 A 2 2 0 0 0 109.384 78.122 L 112.309 65.455 A 2 2 0 0 0 110.81 63.056 L 97.169 59.907 A 2 2 0 0 0 94.77 61.406 L 91.846 74.073 A 2 2 0 0 0 93.344 76.471 Z M 179.972 79.621 L 193.613 76.471 A 2 2 0 0 0 195.112 74.073 L 192.187 61.406 A 2 2 0 0 0 189.789 59.907 L 176.147 63.056 A 2 2 0 0 0 174.649 65.455 L 177.573 78.122 A 2 2 0 0 0 179.972 79.621 Z M 110.666 81.071 L 122.791 88.071 A 2 2 0 0 0 125.523 87.339 L 132.023 76.08 A 2 2 0 0 0 131.291 73.348 L 119.166 66.348 A 2 2 0 0 0 116.434 67.08 L 109.934 78.339 A 2 2 0 0 0 110.666 81.071 Z M 164.166 88.071 L 176.291 81.071 A 2 2 0 0 0 177.023 78.339 L 170.523 67.08 A 2 2 0 0 0 167.791 66.348 L 155.666 73.348 A 2 2 0 0 0 154.934 76.08 L 161.434 87.339 A 2 2 0 0 0 164.166 88.071 Z M 23.661 58.649 A 2 2 0 0 0 21.344 57.027 A 2 2 0 0 0 22.966 54.71 A 2 2 0 0 0 25.283 56.332 A 2 2 0 0 0 23.661 58.649 Z M 20.709 41.907 A 2 2 0 0 0 18.392 40.285 A 2 2 0 0 0 20.014 37.968 A 2 2 0 0 0 22.331 39.59 A 2 2 0 0 0 20.709 41.907 Z M 265.613 57.027 A 2 2 0 0 0 263.296 58.649 A 2 2 0 0 0 261.674 56.332 A 2 2 0 0 0 263.991 54.71 A 2 2 0 0 0 265.613 57.027 Z M 268.565 40.285 A 2 2 0 0 0 266.248 41.907 A 2 2 0 0 0 264.626 39.59 A 2 2 0 0 0 266.943 37.968 A 2 2 0 0 0 268.565 40.285 Z M 77.325 40.25 L 77.325 36.25 A 2 2 0 0 0 79.325 38.25 A 2 2 0 0 0 77.325 40.25 Z M 77.325 36 A 2 2 0 0 0 75.325 34 A 2 2 0 0 0 77.325 32 L 77.325 36 Z M 77.325 23.25 L 77.325 19.25 A 2 2 0 0 0 79.325 21.25 A 2 2 0 0 0 77.325 23.25 Z M 211.633 34 A 2 2 0 0 0 209.633 36 L 209.633 32 A 2 2 0 0 0 211.633 34 Z M 209.633 36.25 L 209.633 40.25 A 2 2 0 0 0 207.633 38.25 A 2 2 0 0 0 209.633 36.25 Z M 209.633 19.25 L 209.633 23.25 A 2 2 0 0 0 207.633 21.25 A 2 2 0 0 0 209.633 19.25 Z M 211.632 17 A 2 2 0 0 0 209.633 19 L 209.633 15 A 2 2 0 0 0 211.632 17 Z M 77.325 19 A 2 2 0 0 0 75.325 17 A 2 2 0 0 0 77.325 15 L 77.325 19 Z" vector-effect="non-scaling-stroke"/></g></svg>