0
SECTION
2
HEADER
9
$INSUNITS
70
4
0
ENDSEC
0
SECTION
2
TABLES
0
TABLE
2
LTYPE
0
LTYPE
72
65
70
64
2
CONTINUOUS
3
______
73
0
40
0
0
ENDTAB
0
TABLE
2
LAYER
0
ENDTAB
0
ENDSEC
0
SECTION
2
ENTITIES
0
LINE
8
0
10
-5.0703484
20
-11.5560187
11
8.7169601
21
-9.1249442
0
ARC
8
0
10
8.0223674
20
-5.1857132
40
4
50
280
51
310.0000013
0
ARC
8
0
10
-8.0223674
20
5.1857132
40
4
50
159.9999997
51
190
0
LINE
8
0
10
-11.9615984
20
4.4911204
11
-9.7041721
21
-8.3113803
0
ARC
8
0
10
-5.7649411
20
-7.6167876
40
4
50
190
51
280
0
ARC
8
0
10
-10.9743864
20
21.927445
40
4
50
159.9999997
51
190
0
LINE
8
0
10
-14.9136174
20
21.2328522
11
-12.6561911
21
8.4303515
0
ARC
8
0
10
-8.7169601
20
9.1249442
40
4
50
190
51
219.9999993
0
ARC
8
0
10
-0.1390969
20
41.1002512
40
4
50
70.0000011
51
100
0
LINE
8
0
10
-0.8336896
20
45.0394823
11
-14.6209981
21
42.6084078
0
ARC
8
0
10
-13.9264054
20
38.6691768
40
4
50
100
51
190
0
LINE
8
0
10
-17.8656364
20
37.974584
11
-15.6082101
21
25.1720833
0
ARC
8
0
10
-11.6689791
20
25.866676
40
4
50
190
51
219.9999993
0
LINE
8
0
10
12.6561912
20
-8.4303515
11
26.4434997
21
-5.999277
0
ARC
8
0
10
25.748907
20
-2.060046
40
4
50
280
51
10
0
LINE
8
0
10
29.688138
20
-1.3654532
11
28.1637197
21
7.2799524
0
ARC
8
0
10
11.9615985
20
-4.4911204
40
4
50
249.9999997
51
280
0
LINE
8
0
10
21.9042212
20
42.7793321
11
21.8379596
21
43.1551208
0
ARC
8
0
10
17.5874426
20
44.2259184
40
4
50
24.2788186
51
100
0
LINE
8
0
10
16.8928499
20
48.1651495
11
3.1055414
21
45.734075
0
ARC
8
0
10
3.8001341
20
41.794844
40
4
50
100
51
130.0000013
0
LINE
8
0
10
28.1637197
20
7.2799524
11
41.9089303
21
8.2411111
0
ARC
8
0
10
41.6299044
20
12.2313673
40
4
50
274
51
4
0
LINE
8
0
10
45.6201606
20
12.5103932
11
45.5430614
21
13.6129636
0
ARC
8
0
10
25.5713135
20
41.1816982
40
4
50
153.9999999
51
156.4587954
0
ARC
8
0
10
38.3513502
20
59.1168776
40
4
50
40.3818631
51
94
0
LINE
8
0
10
38.0723243
20
63.1071338
11
24.1064276
21
62.1305432
0
ARC
8
0
10
24.3854535
20
58.140287
40
4
50
94
51
184
0
LINE
8
0
10
20.3951973
20
57.8612611
11
21.233664
21
45.870628
0
ARC
8
0
10
25.2922876
20
45.1719544
40
4
50
210.2788186
51
213.9999998
0
LINE
8
0
10
45.5430614
20
13.6129636
11
59.3983239
21
13.6129636
0
LINE
8
0
10
63.3983239
20
64.3629635
11
63.3983239
21
64.6129635
0
ARC
8
0
10
59.3983239
20
64.6129635
40
4
50
0
51
90
0
LINE
8
0
10
59.3983239
20
68.6129635
11
45.3983239
21
68.6129635
0
ARC
8
0
10
45.3983239
20
64.6129635
40
4
50
90
51
180
0
LINE
8
0
10
41.3983239
20
64.6129635
11
41.3983239
21
61.7083928
0
LINE
8
0
10
63.3983239
20
9.3629635
11
71.5379364
21
9.3629635
0
LINE
8
0
10
73.0735647
20
9.3629635
11
77.3983239
21
9.3629635
0
ARC
8
0
10
77.3983239
20
13.3629635
40
4
50
270
51
272.9878622
0
LINE
8
0
10
59.3983239
20
13.6129636
11
59.3983239
21
13.3629635
0
ARC
8
0
10
63.3983239
20
13.3629635
40
4
50
180
51
270
0
ARC
8
0
10
77.3983239
20
60.3629635
40
4
50
18.5807342
51
90
0
LINE
8
0
10
77.3983239
20
64.3629635
11
63.3983239
21
64.3629635
0
LINE
8
0
10
90.4055236
20
6.6429635
11
95.398324
21
6.6429635
0
ARC
8
0
10
95.398324
20
10.6429635
40
4
50
270
51
360
0
LINE
8
0
10
99.398324
20
10.6429635
11
99.398324
21
23.6429635
0
ARC
8
0
10
95.398324
20
23.6429635
40
4
50
0
51
30.0000001
0
ARC
8
0
10
81.398324
20
10.6429635
40
4
50
198.5807342
51
221.8206691
0
ARC
8
0
10
95.398324
20
27.6429635
40
4
50
329.9999999
51
360
0
LINE
8
0
10
99.398324
20
27.6429635
11
99.398324
21
40.6429635
0
ARC
8
0
10
95.398324
20
40.6429635
40
4
50
0
51
30.0000001
0
ARC
8
0
10
95.398324
20
44.6429635
40
4
50
329.9999999
51
360
0
LINE
8
0
10
99.398324
20
44.6429635
11
99.398324
21
57.6429635
0
ARC
8
0
10
95.398324
20
57.6429635
40
4
50
0
51
90
0
LINE
8
0
10
95.398324
20
61.6429635
11
81.398324
21
61.6429635
0
ARC
8
0
10
81.398324
20
57.6429635
40
4
50
90
51
92.9878622
0
LINE
8
0
10
59.6478186
20
-12.5197543
11
73.6137153
21
-11.5431637
0
ARC
8
0
10
73.3346894
20
-7.5529075
40
4
50
274
51
300.1396086
0
LINE
8
0
10
76.5309556
20
4.0807044
11
76.4181115
21
5.694451
0
ARC
8
0
10
72.4278553
20
5.4154251
40
4
50
4
51
80.7102456
0
LINE
8
0
10
71.5379364
20
9.3629635
11
58.1829327
21
8.4290907
0
ARC
8
0
10
58.4619586
20
4.4388345
40
4
50
94
51
184
0
LINE
8
0
10
54.4717024
20
4.1598086
11
55.3785365
21
-8.808524
0
ARC
8
0
10
59.3687927
20
-8.5294981
40
4
50
184
51
274
0
LINE
8
0
10
76.9681685
20
-11.8071649
11
90.6093494
21
-14.9564797
0
ARC
8
0
10
91.5091536
20
-11.0589994
40
4
50
257
51
283.1396093
0
LINE
8
0
10
97.9670971
20
-0.8682191
11
98.3309976
21
0.7080072
0
ARC
8
0
10
94.4335173
20
1.6078114
40
4
50
347
51
77
0
LINE
8
0
10
95.3333215
20
5.5052917
11
90.4055236
21
6.6429635
0
ARC
8
0
10
80.7923364
20
4.7571262
40
4
50
126.4227623
51
167
0
LINE
8
0
10
76.8948561
20
5.6569304
11
76.5309556
21
4.0807044
0
ARC
8
0
10
77.8679727
20
-7.9096846
40
4
50
230.8603925
51
257
0
LINE
8
0
10
93.7400425
20
-16.1896923
11
105.8643981
21
-23.1896923
0
ARC
8
0
10
107.8643981
20
-19.7255907
40
4
50
240
51
330
0
LINE
8
0
10
111.3284997
20
-21.7255907
11
117.8284997
21
-10.4672605
0
ARC
8
0
10
114.3643981
20
-8.4672605
40
4
50
330
51
60
0
LINE
8
0
10
116.3643981
20
-5.0031589
11
104.2400425
21
1.9968411
0
ARC
8
0
10
102.2400425
20
-1.4672605
40
4
50
60
51
150
0
LINE
8
0
10
98.7759409
20
0.5327395
11
97.9670971
21
-0.8682191
0
ARC
8
0
10
95.7400425
20
-12.7255907
40
4
50
213.8603942
51
240
0
LINE
8
0
10
246.3874805
20
-9.1249442
11
260.174789
21
-11.5560187
0
ARC
8
0
10
260.8693817
20
-7.6167876
40
4
50
260
51
350
0
LINE
8
0
10
264.8086127
20
-8.3113803
11
267.066039
21
4.4911204
0
ARC
8
0
10
263.126808
20
5.1857132
40
4
50
350
51
380.0000003
0
ARC
8
0
10
247.0820732
20
-5.1857132
40
4
50
229.9999987
51
260
0
ARC
8
0
10
263.8214007
20
9.1249442
40
4
50
320.0000007
51
350
0
LINE
8
0
10
267.7606317
20
8.4303515
11
270.018058
21
21.2328522
0
ARC
8
0
10
266.078827
20
21.927445
40
4
50
350
51
380.0000003
0
ARC
8
0
10
266.7734197
20
25.866676
40
4
50
320.0000007
51
350
0
LINE
8
0
10
270.7126507
20
25.1720833
11
272.970077
21
37.974584
0
ARC
8
0
10
269.030846
20
38.6691768
40
4
50
350
51
80
0
LINE
8
0
10
269.7254387
20
42.6084078
11
255.9381302
21
45.0394823
0
ARC
8
0
10
255.2435375
20
41.1002512
40
4
50
80
51
109.9999989
0
LINE
8
0
10
228.6609409
20
-5.999277
11
242.4482494
21
-8.4303515
0
ARC
8
0
10
243.1428421
20
-4.4911204
40
4
50
260
51
290.0000003
0
LINE
8
0
10
226.9407209
20
7.2799524
11
225.4163026
21
-1.3654532
0
ARC
8
0
10
229.3555336
20
-2.060046
40
4
50
170
51
260
0
ARC
8
0
10
251.3043065
20
41.794844
40
4
50
409.9999987
51
80
0
LINE
8
0
10
251.9988992
20
45.734075
11
238.2115907
21
48.1651495
0
ARC
8
0
10
237.516998
20
44.2259184
40
4
50
80
51
155.7211814
0
LINE
8
0
10
233.266481
20
43.1551208
11
233.2002194
21
42.7793321
0
LINE
8
0
10
213.1955103
20
8.2411111
11
226.9407209
21
7.2799524
0
LINE
8
0
10
209.5613792
20
13.6129636
11
209.48428
21
12.5103932
0
ARC
8
0
10
213.4745362
20
12.2313673
40
4
50
176
51
266
0
ARC
8
0
10
229.5331271
20
41.1816982
40
4
50
383.5412046
51
386.0000001
0
ARC
8
0
10
229.812153
20
45.1719544
40
4
50
326.0000002
51
329.7211814
0
LINE
8
0
10
233.8707766
20
45.870628
11
234.7092433
21
57.8612611
0
ARC
8
0
10
230.7189871
20
58.140287
40
4
50
356
51
86
0
LINE
8
0
10
230.998013
20
62.1305432
11
217.0321163
21
63.1071338
0
ARC
8
0
10
216.7530904
20
59.1168776
40
4
50
86
51
139.6181369
0
LINE
8
0
10
195.7061167
20
13.6129636
11
209.5613792
21
13.6129636
0
LINE
8
0
10
213.7061167
20
61.7083928
11
213.7061167
21
64.6129635
0
ARC
8
0
10
209.7061167
20
64.6129635
40
4
50
0
51
90
0
LINE
8
0
10
209.7061167
20
68.6129635
11
195.7061167
21
68.6129635
0
ARC
8
0
10
195.7061167
20
64.6129635
40
4
50
90
51
180
0
LINE
8
0
10
191.7061167
20
64.6129635
11
191.7061167
21
64.3629635
0
LINE
8
0
10
177.7061167
20
9.3629635
11
182.0308759
21
9.3629635
0
LINE
8
0
10
183.5665042
20
9.3629635
11
191.7061167
21
9.3629635
0
ARC
8
0
10
191.7061167
20
13.3629635
40
4
50
270
51
360
0
LINE
8
0
10
195.7061167
20
13.3629635
11
195.7061167
21
13.6129636
0
ARC
8
0
10
177.7061167
20
13.3629635
40
4
50
267.0121378
51
270
0
LINE
8
0
10
191.7061167
20
64.3629635
11
177.7061167
21
64.3629635
0
ARC
8
0
10
177.7061167
20
60.3629635
40
4
50
90
51
161.4192658
0
LINE
8
0
10
159.7061166
20
6.6429635
11
164.698917
21
6.6429635
0
ARC
8
0
10
173.7061166
20
10.6429635
40
4
50
318.1793309
51
341.4192658
0
ARC
8
0
10
159.7061166
20
23.6429635
40
4
50
149.9999999
51
180
0
LINE
8
0
10
155.7061166
20
23.6429635
11
155.7061166
21
10.6429635
0
ARC
8
0
10
159.7061166
20
10.6429635
40
4
50
180
51
270
0
ARC
8
0
10
159.7061166
20
40.6429635
40
4
50
149.9999999
51
180
0
LINE
8
0
10
155.7061166
20
40.6429635
11
155.7061166
21
27.6429635
0
ARC
8
0
10
159.7061166
20
27.6429635
40
4
50
180
51
210.0000001
0
ARC
8
0
10
173.7061166
20
57.6429635
40
4
50
87.0121378
51
90
0
LINE
8
0
10
173.7061166
20
61.6429635
11
159.7061166
21
61.6429635
0
ARC
8
0
10
159.7061166
20
57.6429635
40
4
50
90
51
180
0
LINE
8
0
10
155.7061166
20
57.6429635
11
155.7061166
21
44.6429635
0
ARC
8
0
10
159.7061166
20
44.6429635
40
4
50
180
51
210.0000001
0
LINE
8
0
10
181.4907253
20
-11.5431637
11
195.456622
21
-12.5197543
0
ARC
8
0
10
195.7356479
20
-8.5294981
40
4
50
266
51
356
0
LINE
8
0
10
199.7259041
20
-8.808524
11
200.6327382
21
4.1598086
0
ARC
8
0
10
196.642482
20
4.4388345
40
4
50
356
51
86
0
LINE
8
0
10
196.9215079
20
8.4290907
11
183.5665042
21
9.3629635
0
ARC
8
0
10
182.6765853
20
5.4154251
40
4
50
99.2897544
51
176
0
LINE
8
0
10
178.6863291
20
5.694451
11
178.573485
21
4.0807044
0
ARC
8
0
10
181.7697512
20
-7.5529075
40
4
50
239.8603914
51
266
0
LINE
8
0
10
164.4950912
20
-14.9564797
11
178.1362721
21
-11.8071649
0
ARC
8
0
10
177.2364679
20
-7.9096846
40
4
50
283
51
309.1396075
0
LINE
8
0
10
178.573485
20
4.0807044
11
178.2095845
21
5.6569304
0
ARC
8
0
10
174.3121042
20
4.7571262
40
4
50
13
51
53.5772377
0
LINE
8
0
10
164.698917
20
6.6429635
11
159.7711191
21
5.5052917
0
ARC
8
0
10
160.6709233
20
1.6078114
40
4
50
103
51
193
0
LINE
8
0
10
156.773443
20
0.7080072
11
157.1373435
21
-0.8682191
0
ARC
8
0
10
163.595287
20
-11.0589994
40
4
50
256.8603907
51
283
0
LINE
8
0
10
149.2400425
20
-23.1896923
11
161.3643981
21
-16.1896923
0
ARC
8
0
10
159.3643981
20
-12.7255907
40
4
50
300
51
326.1396058
0
LINE
8
0
10
157.1373435
20
-0.8682191
11
156.3284997
21
0.5327395
0
ARC
8
0
10
152.8643981
20
-1.4672605
40
4
50
30
51
120
0
LINE
8
0
10
150.8643981
20
1.9968411
11
138.7400425
21
-5.0031589
0
ARC
8
0
10
140.7400425
20
-8.4672605
40
4
50
120
51
210
0
LINE
8
0
10
137.2759409
20
-10.4672605
11
143.7759409
21
-21.7255907
0
ARC
8
0
10
147.2400425
20
-19.7255907
40
4
50
210
51
300
0
ENDSEC
0
EOF