<svg width="290.957mm" height="92.339mm" viewBox="0 0 290.957 92.339" xmlns="http://www.w3.org/2000/svg"><g id="svgGroup" stroke-linecap="round" fill-rule="evenodd" font-size="9pt" stroke="#000" stroke-width="0.25mm" fill="none" style="stroke:#000;stroke-width:0.25mm;fill:none"><path d="M 6.145 62.059 A 4 4 0 0 0 5.965 64.122 L 7.325 71.834 L 7.325 84.75 A 1 1 0 0 0 8.325 85.75 L 113.307 85.75 L 123.791 91.803 A 4 4 0 0 0 129.255 90.339 L 131.904 85.75 L 138.325 85.75 A 1 1 0 0 0 139.325 84.75 L 139.325 4.25 A 1 1 0 0 0 138.325 3.25 L 81.254 3.25 A 4 4 0 0 0 77.325 0 L 63.325 0 A 4 4 0 0 0 59.396 3.25 L 8.325 3.25 A 1 1 0 0 0 7.325 4.25 L 7.325 25.296 L 3.305 26.005 A 4 4 0 0 0 0.061 30.638 L 2.318 43.441 A 4 4 0 0 0 3.193 45.317 A 4 4 0 0 0 3.013 47.38 L 5.27 60.183 A 4 4 0 0 0 6.145 62.059 Z M 283.633 71.834 L 284.992 64.122 A 4 4 0 0 0 284.812 62.059 A 4 4 0 0 0 285.687 60.183 L 287.944 47.38 A 4 4 0 0 0 287.764 45.317 A 4 4 0 0 0 288.639 43.441 L 290.896 30.638 A 4 4 0 0 0 287.652 26.005 L 283.633 25.296 L 283.633 4.25 A 1 1 0 0 0 282.633 3.25 L 231.562 3.25 A 4 4 0 0 0 227.633 0 L 213.633 0 A 4 4 0 0 0 209.703 3.25 L 152.633 3.25 A 1 1 0 0 0 151.633 4.25 L 151.633 84.75 A 1 1 0 0 0 152.633 85.75 L 159.053 85.75 L 161.702 90.339 A 4 4 0 0 0 167.166 91.803 L 177.65 85.75 L 282.633 85.75 A 1 1 0 0 0 283.633 84.75 L 283.633 71.834 Z M 35.307 6.511 m -2.05 0 a 2.05 2.05 0 0 1 4.1 0 a 2.05 2.05 0 0 1 -4.1 0 z M 10.925 81.9 m -2.05 0 a 2.05 2.05 0 0 1 4.1 0 a 2.05 2.05 0 0 1 -4.1 0 z M 136.025 6.42 m -2.05 0 a 2.05 2.05 0 0 1 4.1 0 a 2.05 2.05 0 0 1 -4.1 0 z M 136.025 82.07 m -2.05 0 a 2.05 2.05 0 0 1 4.1 0 a 2.05 2.05 0 0 1 -4.1 0 z M 255.651 6.511 m -2.05 0 a 2.05 2.05 0 0 1 4.1 0 a 2.05 2.05 0 0 1 -4.1 0 z M 280.033 81.9 m -2.05 0 a 2.05 2.05 0 0 1 4.1 0 a 2.05 2.05 0 0 1 -4.1 0 z M 154.933 6.42 m -2.05 0 a 2.05 2.05 0 0 1 4.1 0 a 2.05 2.05 0 0 1 -4.1 0 z M 154.933 82.07 m -2.05 0 a 2.05 2.05 0 0 1 4.1 0 a 2.05 2.05 0 0 1 -4.1 0 z" vector-effect="non-scaling-stroke"/></g></svg>