<svg width="290.957mm" height="92.339mm" viewBox="0 0 290.957 92.339" xmlns="http://www.w3.org/2000/svg"><g id="svgGroup" stroke-linecap="round" fill-rule="evenodd" font-size="9pt" stroke="#000" stroke-width="0.25mm" fill="none" style="stroke:#000;stroke-width:0.25mm;fill:none"><path d="M 12.856 80.169 L 26.643 77.738 A 4 4 0 0 0 28.52 76.863 A 4 4 0 0 0 30.583 77.043 L 44.37 74.612 A 4 4 0 0 0 47.615 69.978 L 46.09 61.333 L 59.835 60.372 A 4 4 0 0 0 63.547 56.103 L 63.469 55 L 77.325 55 L 77.325 55.25 A 4 4 0 0 0 81.325 59.25 L 89.464 59.25 L 76.109 60.184 A 4 4 0 0 0 72.398 64.453 L 73.305 77.421 A 4 4 0 0 0 77.574 81.133 L 91.54 80.156 A 4 4 0 0 0 93.27 79.625 A 4 4 0 0 0 94.895 80.42 L 108.536 83.569 A 4 4 0 0 0 110.345 83.567 A 4 4 0 0 0 111.666 84.803 L 123.791 91.803 A 4 4 0 0 0 129.255 90.339 L 135.755 79.08 A 4 4 0 0 0 134.291 73.616 L 122.166 66.616 A 4 4 0 0 0 116.702 68.08 L 115.894 69.481 L 116.257 67.905 A 4 4 0 0 0 113.26 63.108 L 108.332 61.97 L 113.325 61.97 A 4 4 0 0 0 117.325 57.97 L 117.325 44.97 A 4 4 0 0 0 116.789 42.97 A 4 4 0 0 0 117.325 40.97 L 117.325 27.97 A 4 4 0 0 0 116.789 25.97 A 4 4 0 0 0 117.325 23.97 L 117.325 10.97 A 4 4 0 0 0 113.325 6.97 L 99.325 6.97 A 4 4 0 0 0 99.116 6.975 A 4 4 0 0 0 95.325 4.25 L 81.325 4.25 L 81.325 4 A 4 4 0 0 0 77.325 0 L 63.325 0 A 4 4 0 0 0 59.325 4 L 59.325 6.905 A 4 4 0 0 0 55.999 5.506 L 42.033 6.482 A 4 4 0 0 0 38.322 10.752 L 39.16 22.742 A 4 4 0 0 0 34.819 20.448 L 21.032 22.879 A 4 4 0 0 0 19.155 23.754 A 4 4 0 0 0 17.093 23.573 L 3.305 26.005 A 4 4 0 0 0 0.061 30.638 L 2.318 43.441 A 4 4 0 0 0 3.193 45.317 A 4 4 0 0 0 3.013 47.38 L 5.27 60.183 A 4 4 0 0 0 6.145 62.059 A 4 4 0 0 0 5.965 64.122 L 8.222 76.924 A 4 4 0 0 0 12.856 80.169 Z M 264.314 77.738 L 278.101 80.169 A 4 4 0 0 0 282.735 76.924 L 284.992 64.122 A 4 4 0 0 0 284.812 62.059 A 4 4 0 0 0 285.687 60.183 L 287.944 47.38 A 4 4 0 0 0 287.764 45.317 A 4 4 0 0 0 288.639 43.441 L 290.896 30.638 A 4 4 0 0 0 287.652 26.005 L 273.865 23.573 A 4 4 0 0 0 271.802 23.754 A 4 4 0 0 0 269.925 22.879 L 256.138 20.448 A 4 4 0 0 0 251.797 22.742 L 252.636 10.752 A 4 4 0 0 0 248.924 6.482 L 234.959 5.506 A 4 4 0 0 0 231.633 6.905 L 231.633 4 A 4 4 0 0 0 227.633 0 L 213.633 0 A 4 4 0 0 0 209.633 4 L 209.633 4.25 L 195.633 4.25 A 4 4 0 0 0 191.841 6.975 A 4 4 0 0 0 191.633 6.97 L 177.633 6.97 A 4 4 0 0 0 173.633 10.97 L 173.633 23.97 A 4 4 0 0 0 174.168 25.97 A 4 4 0 0 0 173.633 27.97 L 173.633 40.97 A 4 4 0 0 0 174.168 42.97 A 4 4 0 0 0 173.633 44.97 L 173.633 57.97 A 4 4 0 0 0 177.633 61.97 L 182.625 61.97 L 177.698 63.108 A 4 4 0 0 0 174.7 67.905 L 175.064 69.481 L 174.255 68.08 A 4 4 0 0 0 168.791 66.616 L 156.666 73.616 A 4 4 0 0 0 155.202 79.08 L 161.702 90.339 A 4 4 0 0 0 167.166 91.803 L 179.291 84.803 A 4 4 0 0 0 180.612 83.567 A 4 4 0 0 0 182.421 83.569 L 196.063 80.42 A 4 4 0 0 0 197.688 79.625 A 4 4 0 0 0 199.417 80.156 L 213.383 81.133 A 4 4 0 0 0 217.652 77.421 L 218.559 64.453 A 4 4 0 0 0 214.848 60.184 L 201.493 59.25 L 209.633 59.25 A 4 4 0 0 0 213.633 55.25 L 213.633 55 L 227.488 55 L 227.411 56.103 A 4 4 0 0 0 231.122 60.372 L 244.867 61.333 L 243.343 69.978 A 4 4 0 0 0 246.587 74.612 L 260.375 77.043 A 4 4 0 0 0 262.437 76.863 A 4 4 0 0 0 264.314 77.738 Z M 195.633 59.25 L 199.957 59.25 A 4 4 0 0 0 196.613 62.919 L 196.5 64.532 L 196.136 62.956 A 4 4 0 0 0 194.613 60.637 A 4 4 0 0 0 195.424 59.245 A 4 4 0 0 0 195.633 59.25 Z M 91 59.25 L 95.325 59.25 A 4 4 0 0 0 95.533 59.245 A 4 4 0 0 0 96.344 60.637 A 4 4 0 0 0 94.821 62.956 L 94.457 64.532 L 94.345 62.919 A 4 4 0 0 0 91 59.25 Z M 251.193 25.458 L 251.127 25.834 A 4 4 0 0 0 251.055 25.678 A 4 4 0 0 0 251.193 25.458 Z M 39.831 25.834 L 39.764 25.458 A 4 4 0 0 0 39.903 25.678 A 4 4 0 0 0 39.831 25.834 Z" vector-effect="non-scaling-stroke"/></g></svg>