<svg width="271.208mm" height="77.75mm" viewBox="0 0 271.208 77.75" xmlns="http://www.w3.org/2000/svg"><g id="svgGroup" stroke-linecap="round" fill-rule="evenodd" font-size="9pt" stroke="#000" stroke-width="0.25mm" fill="none" style="stroke:#000;stroke-width:0.25mm;fill:none"><path d="M 25.432 1.141 m -1.05 0 a 1.05 1.05 0 0 1 2.1 0 a 1.05 1.05 0 0 1 -2.1 0 z M 1.05 76.53 m -1.05 0 a 1.05 1.05 0 0 1 2.1 0 a 1.05 1.05 0 0 1 -2.1 0 z M 126.15 1.05 m -1.05 0 a 1.05 1.05 0 0 1 2.1 0 a 1.05 1.05 0 0 1 -2.1 0 z M 126.15 76.7 m -1.05 0 a 1.05 1.05 0 0 1 2.1 0 a 1.05 1.05 0 0 1 -2.1 0 z M 245.776 1.141 m -1.05 0 a 1.05 1.05 0 0 1 2.1 0 a 1.05 1.05 0 0 1 -2.1 0 z M 270.158 76.53 m -1.05 0 a 1.05 1.05 0 0 1 2.1 0 a 1.05 1.05 0 0 1 -2.1 0 z M 145.058 1.05 m -1.05 0 a 1.05 1.05 0 0 1 2.1 0 a 1.05 1.05 0 0 1 -2.1 0 z M 145.058 76.7 m -1.05 0 a 1.05 1.05 0 0 1 2.1 0 a 1.05 1.05 0 0 1 -2.1 0 z" vector-effect="non-scaling-stroke"/></g></svg>