<svg width="283.131mm" height="85.272mm" viewBox="0 0 283.131 85.272" xmlns="http://www.w3.org/2000/svg"><g id="svgGroup" stroke-linecap="round" fill-rule="evenodd" font-size="9pt" stroke="#000" stroke-width="0.25mm" fill="none" style="stroke:#000;stroke-width:0.25mm;fill:none"><path d="M 73.417 74.141 L 87.383 73.165 L 86.406 59.199 L 72.44 60.175 L 73.417 74.141 Z M 227.453 53.38 L 241.419 54.357 L 242.395 40.391 L 228.429 39.414 L 227.453 53.38 Z M 228.639 36.422 L 242.605 37.398 L 243.581 23.432 L 229.615 22.456 L 228.639 36.422 Z M 229.825 19.463 L 243.791 20.44 L 244.767 6.474 L 230.801 5.497 L 229.825 19.463 Z M 195.748 73.165 L 209.714 74.141 L 210.691 60.175 L 196.725 59.199 L 195.748 73.165 Z M 41.712 54.357 L 55.678 53.38 L 54.701 39.414 L 40.736 40.391 L 41.712 54.357 Z M 40.526 37.398 L 54.492 36.422 L 53.516 22.456 L 39.55 23.432 L 40.526 37.398 Z M 39.34 20.44 L 53.306 19.463 L 52.33 5.497 L 38.364 6.474 L 39.34 20.44 Z M 59.412 14 L 73.412 14 L 73.412 0 L 59.412 0 L 59.412 14 Z M 209.719 14 L 223.719 14 L 223.719 0 L 209.719 0 L 209.719 14 Z M 59.412 48 L 73.412 48 L 73.412 34 L 59.412 34 L 59.412 48 Z M 59.412 31 L 73.412 31 L 73.412 17 L 59.412 17 L 59.412 31 Z M 77.412 52.25 L 91.412 52.25 L 91.412 38.25 L 77.412 38.25 L 77.412 52.25 Z M 77.412 35.25 L 91.412 35.25 L 91.412 21.25 L 77.412 21.25 L 77.412 35.25 Z M 77.412 18.25 L 91.412 18.25 L 91.412 4.25 L 77.412 4.25 L 77.412 18.25 Z M 95.412 54.97 L 109.412 54.97 L 109.412 40.97 L 95.412 40.97 L 95.412 54.97 Z M 95.412 37.97 L 109.412 37.97 L 109.412 23.97 L 95.412 23.97 L 95.412 37.97 Z M 95.412 20.97 L 109.412 20.97 L 109.412 6.97 L 95.412 6.97 L 95.412 20.97 Z M 209.719 48 L 223.719 48 L 223.719 34 L 209.719 34 L 209.719 48 Z M 209.719 31 L 223.719 31 L 223.719 17 L 209.719 17 L 209.719 31 Z M 191.719 52.25 L 205.719 52.25 L 205.719 38.25 L 191.719 38.25 L 191.719 52.25 Z M 191.719 35.25 L 205.719 35.25 L 205.719 21.25 L 191.719 21.25 L 191.719 35.25 Z M 191.719 18.25 L 205.719 18.25 L 205.719 4.25 L 191.719 4.25 L 191.719 18.25 Z M 173.719 54.97 L 187.719 54.97 L 187.719 40.97 L 173.719 40.97 L 173.719 54.97 Z M 173.719 37.97 L 187.719 37.97 L 187.719 23.97 L 173.719 23.97 L 173.719 37.97 Z M 173.719 20.97 L 187.719 20.97 L 187.719 6.97 L 173.719 6.97 L 173.719 20.97 Z M 91.769 73.51 L 105.41 76.659 L 108.559 63.018 L 94.918 59.869 L 91.769 73.51 Z M 177.721 76.659 L 191.362 73.51 L 188.213 59.869 L 174.572 63.018 L 177.721 76.659 Z M 243.282 67.665 L 257.069 70.096 L 259.5 56.309 L 245.713 53.878 L 243.282 67.665 Z M 2.431 39.739 L 16.218 37.308 L 13.787 23.52 L 0 25.951 L 2.431 39.739 Z M 20.158 36.613 L 33.945 34.182 L 31.514 20.395 L 17.727 22.826 L 20.158 36.613 Z M 266.913 37.308 L 280.7 39.739 L 283.131 25.951 L 269.344 23.52 L 266.913 37.308 Z M 246.234 50.924 L 260.021 53.355 L 262.452 39.567 L 248.665 37.136 L 246.234 50.924 Z M 249.186 34.182 L 262.973 36.613 L 265.404 22.826 L 251.617 20.395 L 249.186 34.182 Z M 8.335 73.222 L 22.122 70.791 L 19.691 57.004 L 5.904 59.435 L 8.335 73.222 Z M 5.383 56.48 L 19.17 54.049 L 16.739 40.262 L 2.952 42.693 L 5.383 56.48 Z M 26.062 70.096 L 39.849 67.665 L 37.418 53.878 L 23.631 56.309 L 26.062 70.096 Z M 23.11 53.355 L 36.897 50.924 L 34.466 37.136 L 20.679 39.567 L 23.11 53.355 Z M 261.008 70.791 L 274.796 73.222 L 277.227 59.435 L 263.44 57.004 L 261.008 70.791 Z M 263.96 54.049 L 277.748 56.48 L 280.179 42.693 L 266.392 40.262 L 263.96 54.049 Z M 109.503 78.272 L 121.628 85.272 L 128.628 73.147 L 116.503 66.147 L 109.503 78.272 Z M 161.503 85.272 L 173.628 78.272 L 166.628 66.147 L 154.503 73.147 L 161.503 85.272 Z" vector-effect="non-scaling-stroke"/></g></svg>