0
SECTION
2
HEADER
9
$INSUNITS
70
4
0
ENDSEC
0
SECTION
2
TABLES
0
TABLE
2
LTYPE
0
LTYPE
72
65
70
64
2
CONTINUOUS
3
______
73
0
40
0
0
ENDTAB
0
TABLE
2
LAYER
0
ENDTAB
0
ENDSEC
0
SECTION
2
ENTITIES
0
LINE
8
0
10
-5.678117
20
-8.1091915
11
8.1091915
21
-5.678117
0
LINE
8
0
10
8.1091915
20
-5.678117
11
5.678117
21
8.1091915
0
LINE
8
0
10
5.678117
20
8.1091915
11
-8.1091915
21
5.678117
0
LINE
8
0
10
-8.1091915
20
5.678117
11
-5.678117
21
-8.1091915
0
LINE
8
0
10
-8.630136
20
8.6325403
11
5.1571725
21
11.0636148
0
LINE
8
0
10
5.1571725
20
11.0636148
11
2.726098
21
24.8509233
0
LINE
8
0
10
2.726098
20
24.8509233
11
-11.0612105
21
22.4198488
0
LINE
8
0
10
-11.0612105
20
22.4198488
11
-8.630136
21
8.6325403
0
LINE
8
0
10
-11.582155
20
25.3742721
11
2.2051535
21
27.8053466
0
LINE
8
0
10
2.2051535
20
27.8053466
11
-0.225921
21
41.5926551
0
LINE
8
0
10
-0.225921
20
41.5926551
11
-14.0132295
21
39.1615806
0
LINE
8
0
10
-14.0132295
20
39.1615806
11
-11.582155
21
25.3742721
0
LINE
8
0
10
12.0484226
20
-4.9835243
11
25.8357311
21
-2.5524498
0
LINE
8
0
10
25.8357311
20
-2.5524498
11
23.4046566
21
11.2348587
0
LINE
8
0
10
23.4046566
20
11.2348587
11
9.6173481
21
8.8037842
0
LINE
8
0
10
9.6173481
20
8.8037842
11
12.0484226
21
-4.9835243
0
LINE
8
0
10
9.0964035
20
11.7582075
11
22.883712
21
14.189282
0
LINE
8
0
10
22.883712
20
14.189282
11
20.4526375
21
27.9765905
0
LINE
8
0
10
20.4526375
20
27.9765905
11
6.665329
21
25.545516
0
LINE
8
0
10
6.665329
20
25.545516
11
9.0964035
21
11.7582075
0
LINE
8
0
10
6.1443845
20
28.4999393
11
19.931693
21
30.9310138
0
LINE
8
0
10
19.931693
20
30.9310138
11
17.5006185
21
44.7183223
0
LINE
8
0
10
17.5006185
20
44.7183223
11
3.71331
21
42.2872478
0
LINE
8
0
10
3.71331
20
42.2872478
11
6.1443845
21
28.4999393
0
LINE
8
0
10
27.698886
20
10.7559946
11
41.6647827
21
11.7325853
0
LINE
8
0
10
41.6647827
20
11.7325853
11
40.688192
21
25.698482
0
LINE
8
0
10
40.688192
20
25.698482
11
26.7222953
21
24.7218913
0
LINE
8
0
10
26.7222953
20
24.7218913
11
27.698886
21
10.7559946
0
LINE
8
0
10
26.5130259
20
27.7145835
11
40.4789226
21
28.6911742
0
LINE
8
0
10
40.4789226
20
28.6911742
11
39.5023319
21
42.6570709
0
LINE
8
0
10
39.5023319
20
42.6570709
11
25.5364352
21
41.6804802
0
LINE
8
0
10
25.5364352
20
41.6804802
11
26.5130259
21
27.7145835
0
LINE
8
0
10
25.3271659
20
44.6731723
11
39.2930626
21
45.649763
0
LINE
8
0
10
39.2930626
20
45.649763
11
38.3164719
21
59.6156597
0
LINE
8
0
10
38.3164719
20
59.6156597
11
24.3505752
21
58.639069
0
LINE
8
0
10
24.3505752
20
58.639069
11
25.3271659
21
44.6731723
0
LINE
8
0
10
45.3983239
20
17.1129636
11
59.3983239
21
17.1129636
0
LINE
8
0
10
59.3983239
20
17.1129636
11
59.3983239
21
31.1129636
0
LINE
8
0
10
59.3983239
20
31.1129636
11
45.3983239
21
31.1129636
0
LINE
8
0
10
45.3983239
20
31.1129636
11
45.3983239
21
17.1129636
0
LINE
8
0
10
45.3983239
20
34.1129636
11
59.3983239
21
34.1129636
0
LINE
8
0
10
59.3983239
20
34.1129636
11
59.3983239
21
48.1129636
0
LINE
8
0
10
59.3983239
20
48.1129636
11
45.3983239
21
48.1129636
0
LINE
8
0
10
45.3983239
20
48.1129636
11
45.3983239
21
34.1129636
0
LINE
8
0
10
45.3983239
20
51.1129635
11
59.3983239
21
51.1129635
0
LINE
8
0
10
59.3983239
20
51.1129635
11
59.3983239
21
65.1129635
0
LINE
8
0
10
59.3983239
20
65.1129635
11
45.3983239
21
65.1129635
0
LINE
8
0
10
45.3983239
20
65.1129635
11
45.3983239
21
51.1129635
0
LINE
8
0
10
63.3983239
20
12.8629635
11
77.3983239
21
12.8629635
0
LINE
8
0
10
77.3983239
20
12.8629635
11
77.3983239
21
26.8629635
0
LINE
8
0
10
77.3983239
20
26.8629635
11
63.3983239
21
26.8629635
0
LINE
8
0
10
63.3983239
20
26.8629635
11
63.3983239
21
12.8629635
0
LINE
8
0
10
63.3983239
20
29.8629635
11
77.3983239
21
29.8629635
0
LINE
8
0
10
77.3983239
20
29.8629635
11
77.3983239
21
43.8629635
0
LINE
8
0
10
77.3983239
20
43.8629635
11
63.3983239
21
43.8629635
0
LINE
8
0
10
63.3983239
20
43.8629635
11
63.3983239
21
29.8629635
0
LINE
8
0
10
63.3983239
20
46.8629635
11
77.3983239
21
46.8629635
0
LINE
8
0
10
77.3983239
20
46.8629635
11
77.3983239
21
60.8629635
0
LINE
8
0
10
77.3983239
20
60.8629635
11
63.3983239
21
60.8629635
0
LINE
8
0
10
63.3983239
20
60.8629635
11
63.3983239
21
46.8629635
0
LINE
8
0
10
81.398324
20
10.1429635
11
95.398324
21
10.1429635
0
LINE
8
0
10
95.398324
20
10.1429635
11
95.398324
21
24.1429635
0
LINE
8
0
10
95.398324
20
24.1429635
11
81.398324
21
24.1429635
0
LINE
8
0
10
81.398324
20
24.1429635
11
81.398324
21
10.1429635
0
LINE
8
0
10
81.398324
20
27.1429635
11
95.398324
21
27.1429635
0
LINE
8
0
10
95.398324
20
27.1429635
11
95.398324
21
41.1429635
0
LINE
8
0
10
95.398324
20
41.1429635
11
81.398324
21
41.1429635
0
LINE
8
0
10
81.398324
20
41.1429635
11
81.398324
21
27.1429635
0
LINE
8
0
10
81.398324
20
44.1429635
11
95.398324
21
44.1429635
0
LINE
8
0
10
95.398324
20
44.1429635
11
95.398324
21
58.1429635
0
LINE
8
0
10
95.398324
20
58.1429635
11
81.398324
21
58.1429635
0
LINE
8
0
10
81.398324
20
58.1429635
11
81.398324
21
44.1429635
0
LINE
8
0
10
59.403671
20
-9.0282802
11
73.3695677
21
-8.0516895
0
LINE
8
0
10
73.3695677
20
-8.0516895
11
72.392977
21
5.9142072
0
LINE
8
0
10
72.392977
20
5.9142072
11
58.4270803
21
4.9376165
0
LINE
8
0
10
58.4270803
20
4.9376165
11
59.403671
21
-9.0282802
0
LINE
8
0
10
77.7554972
20
-8.3968697
11
91.3966781
21
-11.5461844
0
LINE
8
0
10
91.3966781
20
-11.5461844
11
94.5459928
21
2.0949965
0
LINE
8
0
10
94.5459928
20
2.0949965
11
80.9048119
21
5.2443112
0
LINE
8
0
10
80.9048119
20
5.2443112
11
77.7554972
21
-8.3968697
0
LINE
8
0
10
95.4900425
20
-13.1586034
11
107.6143981
21
-20.1586034
0
LINE
8
0
10
107.6143981
20
-20.1586034
11
114.6143981
21
-8.0342478
0
LINE
8
0
10
114.6143981
20
-8.0342478
11
102.4900425
21
-1.0342478
0
LINE
8
0
10
102.4900425
20
-1.0342478
11
95.4900425
21
-13.1586034
0
LINE
8
0
10
246.9952491
20
-5.678117
11
260.7825576
21
-8.1091915
0
LINE
8
0
10
260.7825576
20
-8.1091915
11
263.2136321
21
5.678117
0
LINE
8
0
10
263.2136321
20
5.678117
11
249.4263236
21
8.1091915
0
LINE
8
0
10
249.4263236
20
8.1091915
11
246.9952491
21
-5.678117
0
LINE
8
0
10
249.9472681
20
11.0636148
11
263.7345766
21
8.6325403
0
LINE
8
0
10
263.7345766
20
8.6325403
11
266.1656511
21
22.4198488
0
LINE
8
0
10
266.1656511
20
22.4198488
11
252.3783426
21
24.8509233
0
LINE
8
0
10
252.3783426
20
24.8509233
11
249.9472681
21
11.0636148
0
LINE
8
0
10
252.8992871
20
27.8053466
11
266.6865956
21
25.3742721
0
LINE
8
0
10
266.6865956
20
25.3742721
11
269.1176701
21
39.1615806
0
LINE
8
0
10
269.1176701
20
39.1615806
11
255.3303616
21
41.5926551
0
LINE
8
0
10
255.3303616
20
41.5926551
11
252.8992871
21
27.8053466
0
LINE
8
0
10
229.2687095
20
-2.5524498
11
243.056018
21
-4.9835243
0
LINE
8
0
10
243.056018
20
-4.9835243
11
245.4870925
21
8.8037842
0
LINE
8
0
10
245.4870925
20
8.8037842
11
231.699784
21
11.2348587
0
LINE
8
0
10
231.699784
20
11.2348587
11
229.2687095
21
-2.5524498
0
LINE
8
0
10
232.2207286
20
14.189282
11
246.0080371
21
11.7582075
0
LINE
8
0
10
246.0080371
20
11.7582075
11
248.4391116
21
25.545516
0
LINE
8
0
10
248.4391116
20
25.545516
11
234.6518031
21
27.9765905
0
LINE
8
0
10
234.6518031
20
27.9765905
11
232.2207286
21
14.189282
0
LINE
8
0
10
235.1727476
20
30.9310138
11
248.9600561
21
28.4999393
0
LINE
8
0
10
248.9600561
20
28.4999393
11
251.3911306
21
42.2872478
0
LINE
8
0
10
251.3911306
20
42.2872478
11
237.6038221
21
44.7183223
0
LINE
8
0
10
237.6038221
20
44.7183223
11
235.1727476
21
30.9310138
0
LINE
8
0
10
213.4396579
20
11.7325853
11
227.4055546
21
10.7559946
0
LINE
8
0
10
227.4055546
20
10.7559946
11
228.3821453
21
24.7218913
0
LINE
8
0
10
228.3821453
20
24.7218913
11
214.4162486
21
25.698482
0
LINE
8
0
10
214.4162486
20
25.698482
11
213.4396579
21
11.7325853
0
LINE
8
0
10
214.625518
20
28.6911742
11
228.5914147
21
27.7145835
0
LINE
8
0
10
228.5914147
20
27.7145835
11
229.5680054
21
41.6804802
0
LINE
8
0
10
229.5680054
20
41.6804802
11
215.6021087
21
42.6570709
0
LINE
8
0
10
215.6021087
20
42.6570709
11
214.625518
21
28.6911742
0
LINE
8
0
10
215.811378
20
45.649763
11
229.7772747
21
44.6731723
0
LINE
8
0
10
229.7772747
20
44.6731723
11
230.7538654
21
58.639069
0
LINE
8
0
10
230.7538654
20
58.639069
11
216.7879687
21
59.6156597
0
LINE
8
0
10
216.7879687
20
59.6156597
11
215.811378
21
45.649763
0
LINE
8
0
10
195.7061167
20
17.1129636
11
209.7061167
21
17.1129636
0
LINE
8
0
10
209.7061167
20
17.1129636
11
209.7061167
21
31.1129636
0
LINE
8
0
10
209.7061167
20
31.1129636
11
195.7061167
21
31.1129636
0
LINE
8
0
10
195.7061167
20
31.1129636
11
195.7061167
21
17.1129636
0
LINE
8
0
10
195.7061167
20
34.1129636
11
209.7061167
21
34.1129636
0
LINE
8
0
10
209.7061167
20
34.1129636
11
209.7061167
21
48.1129636
0
LINE
8
0
10
209.7061167
20
48.1129636
11
195.7061167
21
48.1129636
0
LINE
8
0
10
195.7061167
20
48.1129636
11
195.7061167
21
34.1129636
0
LINE
8
0
10
195.7061167
20
51.1129635
11
209.7061167
21
51.1129635
0
LINE
8
0
10
209.7061167
20
51.1129635
11
209.7061167
21
65.1129635
0
LINE
8
0
10
209.7061167
20
65.1129635
11
195.7061167
21
65.1129635
0
LINE
8
0
10
195.7061167
20
65.1129635
11
195.7061167
21
51.1129635
0
LINE
8
0
10
177.7061167
20
12.8629635
11
191.7061167
21
12.8629635
0
LINE
8
0
10
191.7061167
20
12.8629635
11
191.7061167
21
26.8629635
0
LINE
8
0
10
191.7061167
20
26.8629635
11
177.7061167
21
26.8629635
0
LINE
8
0
10
177.7061167
20
26.8629635
11
177.7061167
21
12.8629635
0
LINE
8
0
10
177.7061167
20
29.8629635
11
191.7061167
21
29.8629635
0
LINE
8
0
10
191.7061167
20
29.8629635
11
191.7061167
21
43.8629635
0
LINE
8
0
10
191.7061167
20
43.8629635
11
177.7061167
21
43.8629635
0
LINE
8
0
10
177.7061167
20
43.8629635
11
177.7061167
21
29.8629635
0
LINE
8
0
10
177.7061167
20
46.8629635
11
191.7061167
21
46.8629635
0
LINE
8
0
10
191.7061167
20
46.8629635
11
191.7061167
21
60.8629635
0
LINE
8
0
10
191.7061167
20
60.8629635
11
177.7061167
21
60.8629635
0
LINE
8
0
10
177.7061167
20
60.8629635
11
177.7061167
21
46.8629635
0
LINE
8
0
10
159.7061166
20
10.1429635
11
173.7061166
21
10.1429635
0
LINE
8
0
10
173.7061166
20
10.1429635
11
173.7061166
21
24.1429635
0
LINE
8
0
10
173.7061166
20
24.1429635
11
159.7061166
21
24.1429635
0
LINE
8
0
10
159.7061166
20
24.1429635
11
159.7061166
21
10.1429635
0
LINE
8
0
10
159.7061166
20
27.1429635
11
173.7061166
21
27.1429635
0
LINE
8
0
10
173.7061166
20
27.1429635
11
173.7061166
21
41.1429635
0
LINE
8
0
10
173.7061166
20
41.1429635
11
159.7061166
21
41.1429635
0
LINE
8
0
10
159.7061166
20
41.1429635
11
159.7061166
21
27.1429635
0
LINE
8
0
10
159.7061166
20
44.1429635
11
173.7061166
21
44.1429635
0
LINE
8
0
10
173.7061166
20
44.1429635
11
173.7061166
21
58.1429635
0
LINE
8
0
10
173.7061166
20
58.1429635
11
159.7061166
21
58.1429635
0
LINE
8
0
10
159.7061166
20
58.1429635
11
159.7061166
21
44.1429635
0
LINE
8
0
10
181.7348729
20
-8.0516895
11
195.7007696
21
-9.0282802
0
LINE
8
0
10
195.7007696
20
-9.0282802
11
196.6773603
21
4.9376165
0
LINE
8
0
10
196.6773603
20
4.9376165
11
182.7114636
21
5.9142072
0
LINE
8
0
10
182.7114636
20
5.9142072
11
181.7348729
21
-8.0516895
0
LINE
8
0
10
163.7077625
20
-11.5461844
11
177.3489434
21
-8.3968697
0
LINE
8
0
10
177.3489434
20
-8.3968697
11
174.1996287
21
5.2443112
0
LINE
8
0
10
174.1996287
20
5.2443112
11
160.5584478
21
2.0949965
0
LINE
8
0
10
160.5584478
20
2.0949965
11
163.7077625
21
-11.5461844
0
LINE
8
0
10
147.4900425
20
-20.1586034
11
159.6143981
21
-13.1586034
0
LINE
8
0
10
159.6143981
20
-13.1586034
11
152.6143981
21
-1.0342478
0
LINE
8
0
10
152.6143981
20
-1.0342478
11
140.4900425
21
-8.0342478
0
LINE
8
0
10
140.4900425
20
-8.0342478
11
147.4900425
21
-20.1586034
0
ENDSEC
0
EOF