<svg width="287.765mm" height="90.004mm" viewBox="0 0 287.765 90.004" xmlns="http://www.w3.org/2000/svg"><g id="svgGroup" stroke-linecap="round" fill-rule="evenodd" font-size="9pt" stroke="#000" stroke-width="0.25mm" fill="none" style="stroke:#000;stroke-width:0.25mm;fill:none"><path d="M 261.008 74.413 L 264.134 56.687 L 246.408 53.561 L 243.282 71.288 L 261.008 74.413 Z M 5.904 59.813 L 23.631 56.687 L 26.756 74.413 L 9.03 77.539 L 5.904 59.813 Z M 2.952 43.071 L 20.679 39.945 L 23.804 57.672 L 6.078 60.797 L 2.952 43.071 Z M 0 26.329 L 17.727 23.203 L 20.852 40.93 L 3.126 44.056 L 0 26.329 Z M 23.631 56.687 L 41.357 53.561 L 44.483 71.288 L 26.756 74.413 L 23.631 56.687 Z M 20.679 39.945 L 38.405 36.819 L 41.531 54.546 L 23.804 57.672 L 20.679 39.945 Z M 17.727 23.203 L 35.453 20.078 L 38.579 37.804 L 20.852 40.93 L 17.727 23.203 Z M 249.36 36.819 L 267.086 39.945 L 263.96 57.672 L 246.234 54.546 L 249.36 36.819 Z M 252.312 20.078 L 270.038 23.203 L 266.913 40.93 L 249.186 37.804 L 252.312 20.078 Z M 264.134 56.687 L 281.861 59.813 L 278.735 77.539 L 261.008 74.413 L 264.134 56.687 Z M 267.086 39.945 L 284.813 43.071 L 281.687 60.797 L 263.96 57.672 L 267.086 39.945 Z M 270.038 23.203 L 287.765 26.329 L 284.639 44.056 L 266.913 40.93 L 270.038 23.203 Z M 174.49 63.519 L 192.029 59.47 L 196.078 77.009 L 178.539 81.058 L 174.49 63.519 Z M 95.736 59.47 L 113.275 63.519 L 109.226 81.058 L 91.687 77.009 L 95.736 59.47 Z M 59.728 0 L 77.728 0 L 77.728 18 L 59.728 18 L 59.728 0 Z M 210.036 0 L 228.036 0 L 228.036 18 L 210.036 18 L 210.036 0 Z M 59.728 34 L 77.728 34 L 77.728 52 L 59.728 52 L 59.728 34 Z M 59.728 17 L 77.728 17 L 77.728 35 L 59.728 35 L 59.728 17 Z M 77.728 38.25 L 95.728 38.25 L 95.728 56.25 L 77.728 56.25 L 77.728 38.25 Z M 77.728 21.25 L 95.728 21.25 L 95.728 39.25 L 77.728 39.25 L 77.728 21.25 Z M 77.728 4.25 L 95.728 4.25 L 95.728 22.25 L 77.728 22.25 L 77.728 4.25 Z M 95.728 40.97 L 113.728 40.97 L 113.728 58.97 L 95.728 58.97 L 95.728 40.97 Z M 95.728 23.97 L 113.728 23.97 L 113.728 41.97 L 95.728 41.97 L 95.728 23.97 Z M 95.728 6.97 L 113.728 6.97 L 113.728 24.97 L 95.728 24.97 L 95.728 6.97 Z M 210.036 34 L 228.036 34 L 228.036 52 L 210.036 52 L 210.036 34 Z M 210.036 17 L 228.036 17 L 228.036 35 L 210.036 35 L 210.036 17 Z M 192.036 38.25 L 210.036 38.25 L 210.036 56.25 L 192.036 56.25 L 192.036 38.25 Z M 192.036 21.25 L 210.036 21.25 L 210.036 39.25 L 192.036 39.25 L 192.036 21.25 Z M 192.036 4.25 L 210.036 4.25 L 210.036 22.25 L 192.036 22.25 L 192.036 4.25 Z M 174.036 40.97 L 192.036 40.97 L 192.036 58.97 L 174.036 58.97 L 174.036 40.97 Z M 174.036 23.97 L 192.036 23.97 L 192.036 41.97 L 174.036 41.97 L 174.036 23.97 Z M 174.036 6.97 L 192.036 6.97 L 192.036 24.97 L 174.036 24.97 L 174.036 6.97 Z M 40.918 40.535 L 58.874 39.28 L 60.13 57.236 L 42.173 58.492 L 40.918 40.535 Z M 39.732 23.577 L 57.688 22.321 L 58.944 40.277 L 40.988 41.533 L 39.732 23.577 Z M 72.623 60.32 L 90.579 59.064 L 91.834 77.02 L 73.878 78.276 L 72.623 60.32 Z M 38.546 6.618 L 56.502 5.363 L 57.758 23.319 L 39.802 24.574 L 38.546 6.618 Z M 228.891 39.28 L 246.847 40.535 L 245.591 58.492 L 227.635 57.236 L 228.891 39.28 Z M 197.186 59.064 L 215.142 60.32 L 213.887 78.276 L 195.93 77.02 L 197.186 59.064 Z M 230.077 22.321 L 248.033 23.577 L 246.777 41.533 L 228.821 40.277 L 230.077 22.321 Z M 231.262 5.363 L 249.219 6.618 L 247.963 24.574 L 230.007 23.319 L 231.262 5.363 Z M 118.088 65.415 L 133.677 74.415 L 124.677 90.004 L 109.088 81.004 L 118.088 65.415 Z M 154.088 74.415 L 169.677 65.415 L 178.677 81.004 L 163.088 90.004 L 154.088 74.415 Z" vector-effect="non-scaling-stroke"/></g></svg>