0
SECTION
2
HEADER
9
$INSUNITS
70
4
0
ENDSEC
0
SECTION
2
TABLES
0
TABLE
2
LTYPE
0
LTYPE
72
65
70
64
2
CONTINUOUS
3
______
73
0
40
0
0
ENDTAB
0
TABLE
2
LAYER
0
ENDTAB
0
ENDSEC
0
SECTION
2
ENTITIES
0
LINE
8
0
10
-10.4261034
20
7.3004362
11
7.3004362
21
10.4261034
0
LINE
8
0
10
7.3004362
20
10.4261034
11
10.4261034
21
-7.3004362
0
LINE
8
0
10
10.4261034
20
-7.3004362
11
-7.3004362
21
-10.4261034
0
LINE
8
0
10
-7.3004362
20
-10.4261034
11
-10.4261034
21
7.3004362
0
LINE
8
0
10
-13.3781224
20
24.042168
11
4.3484172
21
27.1678352
0
LINE
8
0
10
4.3484172
20
27.1678352
11
7.4740844
21
9.4412956
0
LINE
8
0
10
7.4740844
20
9.4412956
11
-10.2524552
21
6.3156284
0
LINE
8
0
10
-10.2524552
20
6.3156284
11
-13.3781224
21
24.042168
0
LINE
8
0
10
-16.3301414
20
40.7838998
11
1.3963982
21
43.909567
0
LINE
8
0
10
1.3963982
20
43.909567
11
4.5220654
21
26.1830274
0
LINE
8
0
10
4.5220654
20
26.1830274
11
-13.2044742
21
23.0573602
0
LINE
8
0
10
-13.2044742
20
23.0573602
11
-16.3301414
21
40.7838998
0
LINE
8
0
10
7.3004362
20
10.4261034
11
25.0269758
21
13.5517706
0
LINE
8
0
10
25.0269758
20
13.5517706
11
28.152643
21
-4.174769
0
LINE
8
0
10
28.152643
20
-4.174769
11
10.4261034
21
-7.3004362
0
LINE
8
0
10
10.4261034
20
-7.3004362
11
7.3004362
21
10.4261034
0
LINE
8
0
10
4.3484171
20
27.1678352
11
22.0749567
21
30.2935024
0
LINE
8
0
10
22.0749567
20
30.2935024
11
25.2006239
21
12.5669628
0
LINE
8
0
10
25.2006239
20
12.5669628
11
7.4740843
21
9.4412956
0
LINE
8
0
10
7.4740843
20
9.4412956
11
4.3484171
21
27.1678352
0
LINE
8
0
10
1.3963981
20
43.909567
11
19.1229377
21
47.0352342
0
LINE
8
0
10
19.1229377
20
47.0352342
11
22.2486049
21
29.3086946
0
LINE
8
0
10
22.2486049
20
29.3086946
11
4.5220653
21
26.1830274
0
LINE
8
0
10
4.5220653
20
26.1830274
11
1.3963981
21
43.909567
0
LINE
8
0
10
24.5876543
20
26.5775065
11
42.5438072
21
27.833123
0
LINE
8
0
10
42.5438072
20
27.833123
11
43.7994237
21
9.8769701
0
LINE
8
0
10
43.7994237
20
9.8769701
11
25.8432708
21
8.6213536
0
LINE
8
0
10
25.8432708
20
8.6213536
11
24.5876543
21
26.5775065
0
LINE
8
0
10
23.4017942
20
43.5360954
11
41.3579471
21
44.7917119
0
LINE
8
0
10
41.3579471
20
44.7917119
11
42.6135636
21
26.835559
0
LINE
8
0
10
42.6135636
20
26.835559
11
24.6574107
21
25.5799425
0
LINE
8
0
10
24.6574107
20
25.5799425
11
23.4017942
21
43.5360954
0
LINE
8
0
10
22.2159342
20
60.4946842
11
40.1720871
21
61.7503007
0
LINE
8
0
10
40.1720871
20
61.7503007
11
41.4277036
21
43.7941478
0
LINE
8
0
10
41.4277036
20
43.7941478
11
23.4715507
21
42.5385313
0
LINE
8
0
10
23.4715507
20
42.5385313
11
22.2159342
21
60.4946842
0
LINE
8
0
10
43.3983239
20
33.1129636
11
61.3983239
21
33.1129636
0
LINE
8
0
10
61.3983239
20
33.1129636
11
61.3983239
21
15.1129636
0
LINE
8
0
10
61.3983239
20
15.1129636
11
43.3983239
21
15.1129636
0
LINE
8
0
10
43.3983239
20
15.1129636
11
43.3983239
21
33.1129636
0
LINE
8
0
10
43.3983239
20
50.1129636
11
61.3983239
21
50.1129636
0
LINE
8
0
10
61.3983239
20
50.1129636
11
61.3983239
21
32.1129636
0
LINE
8
0
10
61.3983239
20
32.1129636
11
43.3983239
21
32.1129636
0
LINE
8
0
10
43.3983239
20
32.1129636
11
43.3983239
21
50.1129636
0
LINE
8
0
10
43.3983239
20
67.1129635
11
61.3983239
21
67.1129635
0
LINE
8
0
10
61.3983239
20
67.1129635
11
61.3983239
21
49.1129635
0
LINE
8
0
10
61.3983239
20
49.1129635
11
43.3983239
21
49.1129635
0
LINE
8
0
10
43.3983239
20
49.1129635
11
43.3983239
21
67.1129635
0
LINE
8
0
10
61.3983239
20
28.8629635
11
79.3983239
21
28.8629635
0
LINE
8
0
10
79.3983239
20
28.8629635
11
79.3983239
21
10.8629635
0
LINE
8
0
10
79.3983239
20
10.8629635
11
61.3983239
21
10.8629635
0
LINE
8
0
10
61.3983239
20
10.8629635
11
61.3983239
21
28.8629635
0
LINE
8
0
10
61.3983239
20
45.8629635
11
79.3983239
21
45.8629635
0
LINE
8
0
10
79.3983239
20
45.8629635
11
79.3983239
21
27.8629635
0
LINE
8
0
10
79.3983239
20
27.8629635
11
61.3983239
21
27.8629635
0
LINE
8
0
10
61.3983239
20
27.8629635
11
61.3983239
21
45.8629635
0
LINE
8
0
10
61.3983239
20
62.8629635
11
79.3983239
21
62.8629635
0
LINE
8
0
10
79.3983239
20
62.8629635
11
79.3983239
21
44.8629635
0
LINE
8
0
10
79.3983239
20
44.8629635
11
61.3983239
21
44.8629635
0
LINE
8
0
10
61.3983239
20
44.8629635
11
61.3983239
21
62.8629635
0
LINE
8
0
10
79.398324
20
26.1429635
11
97.398324
21
26.1429635
0
LINE
8
0
10
97.398324
20
26.1429635
11
97.398324
21
8.1429635
0
LINE
8
0
10
97.398324
20
8.1429635
11
79.398324
21
8.1429635
0
LINE
8
0
10
79.398324
20
8.1429635
11
79.398324
21
26.1429635
0
LINE
8
0
10
79.398324
20
43.1429635
11
97.398324
21
43.1429635
0
LINE
8
0
10
97.398324
20
43.1429635
11
97.398324
21
25.1429635
0
LINE
8
0
10
97.398324
20
25.1429635
11
79.398324
21
25.1429635
0
LINE
8
0
10
79.398324
20
25.1429635
11
79.398324
21
43.1429635
0
LINE
8
0
10
79.398324
20
60.1429635
11
97.398324
21
60.1429635
0
LINE
8
0
10
97.398324
20
60.1429635
11
97.398324
21
42.1429635
0
LINE
8
0
10
97.398324
20
42.1429635
11
79.398324
21
42.1429635
0
LINE
8
0
10
79.398324
20
42.1429635
11
79.398324
21
60.1429635
0
LINE
8
0
10
56.2924393
20
6.7932317
11
74.2485922
21
8.0488482
0
LINE
8
0
10
74.2485922
20
8.0488482
11
75.5042087
21
-9.9073047
0
LINE
8
0
10
75.5042087
20
-9.9073047
11
57.5480558
21
-11.1629212
0
LINE
8
0
10
57.5480558
20
-11.1629212
11
56.2924393
21
6.7932317
0
LINE
8
0
10
79.4059739
20
7.6429535
11
96.9446351
21
3.5938345
0
LINE
8
0
10
96.9446351
20
3.5938345
11
92.8955161
21
-13.9448267
0
LINE
8
0
10
92.8955161
20
-13.9448267
11
75.3568549
21
-9.8957077
0
LINE
8
0
10
75.3568549
20
-9.8957077
11
79.4059739
21
7.6429535
0
LINE
8
0
10
101.7579917
20
1.697803
11
117.3464489
21
-7.302197
0
LINE
8
0
10
117.3464489
20
-7.302197
11
108.3464489
21
-22.8906542
0
LINE
8
0
10
108.3464489
20
-22.8906542
11
92.7579917
21
-13.8906542
0
LINE
8
0
10
92.7579917
20
-13.8906542
11
101.7579917
21
1.697803
0
LINE
8
0
10
247.8040044
20
10.4261034
11
265.530544
21
7.3004362
0
LINE
8
0
10
265.530544
20
7.3004362
11
262.4048768
21
-10.4261034
0
LINE
8
0
10
262.4048768
20
-10.4261034
11
244.6783372
21
-7.3004362
0
LINE
8
0
10
244.6783372
20
-7.3004362
11
247.8040044
21
10.4261034
0
LINE
8
0
10
250.7560234
20
27.1678352
11
268.482563
21
24.042168
0
LINE
8
0
10
268.482563
20
24.042168
11
265.3568958
21
6.3156284
0
LINE
8
0
10
265.3568958
20
6.3156284
11
247.6303562
21
9.4412956
0
LINE
8
0
10
247.6303562
20
9.4412956
11
250.7560234
21
27.1678352
0
LINE
8
0
10
253.7080424
20
43.909567
11
271.434582
21
40.7838998
0
LINE
8
0
10
271.434582
20
40.7838998
11
268.3089148
21
23.0573602
0
LINE
8
0
10
268.3089148
20
23.0573602
11
250.5823752
21
26.1830274
0
LINE
8
0
10
250.5823752
20
26.1830274
11
253.7080424
21
43.909567
0
LINE
8
0
10
230.0774648
20
13.5517706
11
247.8040044
21
10.4261034
0
LINE
8
0
10
247.8040044
20
10.4261034
11
244.6783372
21
-7.3004362
0
LINE
8
0
10
244.6783372
20
-7.3004362
11
226.9517976
21
-4.174769
0
LINE
8
0
10
226.9517976
20
-4.174769
11
230.0774648
21
13.5517706
0
LINE
8
0
10
233.0294839
20
30.2935024
11
250.7560235
21
27.1678352
0
LINE
8
0
10
250.7560235
20
27.1678352
11
247.6303563
21
9.4412956
0
LINE
8
0
10
247.6303563
20
9.4412956
11
229.9038167
21
12.5669628
0
LINE
8
0
10
229.9038167
20
12.5669628
11
233.0294839
21
30.2935024
0
LINE
8
0
10
235.9815029
20
47.0352342
11
253.7080425
21
43.909567
0
LINE
8
0
10
253.7080425
20
43.909567
11
250.5823753
21
26.1830274
0
LINE
8
0
10
250.5823753
20
26.1830274
11
232.8558357
21
29.3086946
0
LINE
8
0
10
232.8558357
20
29.3086946
11
235.9815029
21
47.0352342
0
LINE
8
0
10
212.5606334
20
27.833123
11
230.5167863
21
26.5775065
0
LINE
8
0
10
230.5167863
20
26.5775065
11
229.2611698
21
8.6213536
0
LINE
8
0
10
229.2611698
20
8.6213536
11
211.3050169
21
9.8769701
0
LINE
8
0
10
211.3050169
20
9.8769701
11
212.5606334
21
27.833123
0
LINE
8
0
10
213.7464935
20
44.7917119
11
231.7026464
21
43.5360954
0
LINE
8
0
10
231.7026464
20
43.5360954
11
230.4470299
21
25.5799425
0
LINE
8
0
10
230.4470299
20
25.5799425
11
212.490877
21
26.835559
0
LINE
8
0
10
212.490877
20
26.835559
11
213.7464935
21
44.7917119
0
LINE
8
0
10
214.9323535
20
61.7503007
11
232.8885064
21
60.4946842
0
LINE
8
0
10
232.8885064
20
60.4946842
11
231.6328899
21
42.5385313
0
LINE
8
0
10
231.6328899
20
42.5385313
11
213.676737
21
43.7941478
0
LINE
8
0
10
213.676737
20
43.7941478
11
214.9323535
21
61.7503007
0
LINE
8
0
10
193.7061167
20
33.1129636
11
211.7061167
21
33.1129636
0
LINE
8
0
10
211.7061167
20
33.1129636
11
211.7061167
21
15.1129636
0
LINE
8
0
10
211.7061167
20
15.1129636
11
193.7061167
21
15.1129636
0
LINE
8
0
10
193.7061167
20
15.1129636
11
193.7061167
21
33.1129636
0
LINE
8
0
10
193.7061167
20
50.1129636
11
211.7061167
21
50.1129636
0
LINE
8
0
10
211.7061167
20
50.1129636
11
211.7061167
21
32.1129636
0
LINE
8
0
10
211.7061167
20
32.1129636
11
193.7061167
21
32.1129636
0
LINE
8
0
10
193.7061167
20
32.1129636
11
193.7061167
21
50.1129636
0
LINE
8
0
10
193.7061167
20
67.1129635
11
211.7061167
21
67.1129635
0
LINE
8
0
10
211.7061167
20
67.1129635
11
211.7061167
21
49.1129635
0
LINE
8
0
10
211.7061167
20
49.1129635
11
193.7061167
21
49.1129635
0
LINE
8
0
10
193.7061167
20
49.1129635
11
193.7061167
21
67.1129635
0
LINE
8
0
10
175.7061167
20
28.8629635
11
193.7061167
21
28.8629635
0
LINE
8
0
10
193.7061167
20
28.8629635
11
193.7061167
21
10.8629635
0
LINE
8
0
10
193.7061167
20
10.8629635
11
175.7061167
21
10.8629635
0
LINE
8
0
10
175.7061167
20
10.8629635
11
175.7061167
21
28.8629635
0
LINE
8
0
10
175.7061167
20
45.8629635
11
193.7061167
21
45.8629635
0
LINE
8
0
10
193.7061167
20
45.8629635
11
193.7061167
21
27.8629635
0
LINE
8
0
10
193.7061167
20
27.8629635
11
175.7061167
21
27.8629635
0
LINE
8
0
10
175.7061167
20
27.8629635
11
175.7061167
21
45.8629635
0
LINE
8
0
10
175.7061167
20
62.8629635
11
193.7061167
21
62.8629635
0
LINE
8
0
10
193.7061167
20
62.8629635
11
193.7061167
21
44.8629635
0
LINE
8
0
10
193.7061167
20
44.8629635
11
175.7061167
21
44.8629635
0
LINE
8
0
10
175.7061167
20
44.8629635
11
175.7061167
21
62.8629635
0
LINE
8
0
10
157.7061166
20
26.1429635
11
175.7061166
21
26.1429635
0
LINE
8
0
10
175.7061166
20
26.1429635
11
175.7061166
21
8.1429635
0
LINE
8
0
10
175.7061166
20
8.1429635
11
157.7061166
21
8.1429635
0
LINE
8
0
10
157.7061166
20
8.1429635
11
157.7061166
21
26.1429635
0
LINE
8
0
10
157.7061166
20
43.1429635
11
175.7061166
21
43.1429635
0
LINE
8
0
10
175.7061166
20
43.1429635
11
175.7061166
21
25.1429635
0
LINE
8
0
10
175.7061166
20
25.1429635
11
157.7061166
21
25.1429635
0
LINE
8
0
10
157.7061166
20
25.1429635
11
157.7061166
21
43.1429635
0
LINE
8
0
10
157.7061166
20
60.1429635
11
175.7061166
21
60.1429635
0
LINE
8
0
10
175.7061166
20
60.1429635
11
175.7061166
21
42.1429635
0
LINE
8
0
10
175.7061166
20
42.1429635
11
157.7061166
21
42.1429635
0
LINE
8
0
10
157.7061166
20
42.1429635
11
157.7061166
21
60.1429635
0
LINE
8
0
10
180.8558484
20
8.0488482
11
198.8120013
21
6.7932317
0
LINE
8
0
10
198.8120013
20
6.7932317
11
197.5563848
21
-11.1629212
0
LINE
8
0
10
197.5563848
20
-11.1629212
11
179.6002319
21
-9.9073047
0
LINE
8
0
10
179.6002319
20
-9.9073047
11
180.8558484
21
8.0488482
0
LINE
8
0
10
158.1598055
20
3.5938345
11
175.6984667
21
7.6429535
0
LINE
8
0
10
175.6984667
20
7.6429535
11
179.7475857
21
-9.8957077
0
LINE
8
0
10
179.7475857
20
-9.8957077
11
162.2089245
21
-13.9448267
0
LINE
8
0
10
162.2089245
20
-13.9448267
11
158.1598055
21
3.5938345
0
LINE
8
0
10
137.7579917
20
-7.302197
11
153.3464489
21
1.697803
0
LINE
8
0
10
153.3464489
20
1.697803
11
162.3464489
21
-13.8906542
0
LINE
8
0
10
162.3464489
20
-13.8906542
11
146.7579917
21
-22.8906542
0
LINE
8
0
10
146.7579917
20
-22.8906542
11
137.7579917
21
-7.302197
0
ENDSEC
0
EOF